<?xml version="1.0" encoding="UTF-8"?> <svg xmlns="http://www.w3.org/2000/svg" xmlns:xlink="http://www.w3.org/1999/xlink" version="1.1" id="Capa_1" x="0px" y="0px" viewBox="0 0 474 115" style="enable-background:new 0 0 474 115;" xml:space="preserve"> <style type="text/css"> .st0{fill:#163558;} </style> <g> <g> <rect x="128.5" y="3.1" class="st0" width="1.1" height="108.8"></rect> </g> <g> <polygon class="st0" points="60.4,44.8 52.4,44.8 51.6,46.6 61.2,46.6 "></polygon> <polygon class="st0" points="61.1,48.4 51.7,48.4 50.9,50.2 61.9,50.2 "></polygon> <polygon class="st0" points="59.3,57.5 60.4,52 52.4,52 53.5,57.5 "></polygon> <path class="st0" d="M56.4,64.8c-1.6,0-2.8,1.4-2.7,3l2.1,19C55.4,86.9,55,87.4,55,88s0.4,1.1,1,1.3c0.1,0.1,0.3,0.1,0.4,0.1l0,0 l0,0c0.8,0,1.4-0.6,1.4-1.4c0-0.6-0.3-1.1-0.8-1.3l2.1-19C59.2,66.1,58,64.8,56.4,64.8z"></path> <path class="st0" d="M50.6,62.5c0.4,0,0.8-0.2,1-0.5h9.6c0.2,0.3,0.6,0.5,1,0.5c0.8,0,1.4-0.6,1.4-1.4c0-0.8-0.6-1.4-1.4-1.4 c-0.4,0-0.8,0.2-1,0.5h-9.6c-0.2-0.3-0.6-0.5-1-0.5c-0.8,0-1.4,0.6-1.4,1.4C49.3,61.9,49.9,62.5,50.6,62.5z"></path> <path class="st0" d="M51.4,42.1h9.9c3.7-3.4,0-6.8,0.9-8.3c-1.1,0.3-1.2,2.1-2,3c-1.4-3,1.8-5.7-1-9.2c0.1,2.8-2.6,3.8-2.9,8 c-1.2-2.4,0.5-4.7-1.2-7.3c-0.3,2.3-2.9,3.4-2.6,7.3c-1.3-0.5-1.2-2.1-2.4-2.3C51.2,35.3,47.9,38.9,51.4,42.1z"></path> <path class="st0" d="M12.5,4v65.4c0,24.2,19.7,43.9,43.9,43.9l0,0l0,0c24.2,0,43.9-19.7,43.9-43.9V23.1V4H12.5z M88.6,11.9 l1.3-4.1l1.3,4.1h4.3L92,14.4l1.3,4.1L89.8,16l-3.5,2.5l1.3-4.1l-3.5-2.5H88.6z M88.6,30.8l1.3-4.1l1.3,4.1h4.3L92,33.3l1.3,4.1 l-3.5-2.5l-3.5,2.5l1.3-4.1l-3.5-2.5H88.6z M93.1,71.2c-1.2,0.7-2.3,1.6-3.3,2.6c-0.4-0.9-0.9-1.6-1.4-2.3 c0.5-2.1,1.4-4.1,2.5-5.2C91.9,67.3,92.6,69.2,93.1,71.2z M82.4,78.8c0.4,0.5,0.7,1.1,1.1,1.7c0.1,0.2,0.2,0.3,0.2,0.5l-0.1,0.1 c-0.2,0.4-0.4,0.8-0.6,1.2c-0.9,1.9-1.4,4.1-1.5,5.9c-0.7,0.3-1.3,0.6-1.8,1c-0.7-3.2,0.4-8.7,2.4-10.9 C82.2,78.5,82.3,78.7,82.4,78.8z M84,84.6c0.1-0.3,0.2-0.7,0.4-1c0,0,0-0.1,0.1-0.1c0.1-0.3,0.3-0.6,0.4-0.9 c0-0.1,0.1-0.2,0.1-0.3c0.2-0.3,0.4-0.7,0.6-1c0.4-0.7,0.9-1.3,1.4-1.8c0.2-0.1,0.3-0.3,0.5-0.4c0.4,0.5,0.7,1.2,0.9,2 c0,0.1,0.1,0.2,0.1,0.4c0.1,0.3,0.1,0.6,0.2,0.9s0.1,0.6,0.2,0.9c0,0.4,0.1,0.7,0.1,1.1c0,0.3,0,0.6,0,1c0,0.3,0,0.6,0,0.8 c0,0.3,0,0.5,0,0.8c-0.7,0-1.5,0.1-2.3,0.2c-0.3,0-0.6,0.1-0.9,0.1s-0.6,0.1-0.8,0.2c-0.1,0-0.2,0-0.3,0.1c-0.3,0.1-0.7,0.2-1,0.2 c-0.1,0-0.3,0.1-0.4,0.1c0.1-0.7,0.2-1.4,0.4-2.2C83.8,85.2,83.9,84.9,84,84.6z M71.8,11.9l1.3-4.1l1.3,4.1h4.3l-3.5,2.5l1.3,4.1 L73,16l-3.5,2.5l1.3-4.1l-3.5-2.5H71.8z M55.1,11.9l1.3-4.1l1.3,4.1H62l-3.5,2.5l1.3,4.1L56.3,16l-3.5,2.5l1.3-4.1l-3.5-2.5H55.1z M38.3,11.9l1.3-4.1l1.3,4.1h4.3l-3.5,2.5l1.3,4.1L39.5,16L36,18.5l1.3-4.1L34,11.9H38.3z M33.3,23.1h46.3v48 c0,12.8-10.4,23.1-23.1,23.1l0,0l0,0c-12.8,0-23.1-10.4-23.1-23.1v-48C33.4,23.1,33.3,23.1,33.3,23.1z M78,95.2 c0,0.3,0,0.6-0.1,0.9c-1.2-0.3-2.4-0.5-3.5-0.6c-0.3,0-0.6,0-0.9,0c-0.1,0-0.2,0-0.2,0c-0.3,0-0.4,0-0.7,0c0,0,0,0-0.1,0 c0.7-2.8,2.2-5.8,4-7.1c0.5,0.8,0.9,1.8,1.1,3.1c0,0.2,0.1,0.3,0.1,0.5c0,0.3,0.1,0.6,0.1,0.8c0,0.3,0.1,0.6,0.1,0.8 C78,94.1,78,94.6,78,95.2z M35,94c0-0.4,0-0.8,0-1.2l0,0l0,0c0-0.4,0-0.8,0.1-1.2c0-0.4,0.1-0.7,0.2-1c0.1-0.7,0.3-1.4,0.6-1.9 c0.1-0.1,0.1-0.2,0.2-0.4c0.2,0.1,0.5,0.3,0.7,0.5c1.6,1.3,3,3.8,3.9,6.2c-1.4-0.4-2.7-0.5-3.7-0.5c-0.3,0-0.5,0-0.7,0 c-0.1,0-0.1,0-0.2,0c-0.3,0-0.6,0-0.9,0l0,0v-0.1C35,94.3,35,94.1,35,94z M30.3,81.8c0.3-0.9,0.7-1.7,1.2-2.2 c0.1,0.1,0.1,0.1,0.2,0.2c1.5,1.5,2.7,4.4,3.1,7.1l-0.3,0.5c-0.3,0.6-0.6,1.3-0.8,2.1c-0.4-0.2-0.9-0.5-1.4-0.7 C32.3,86.7,31.5,84.1,30.3,81.8C30.3,81.9,30.3,81.8,30.3,81.8z M30.5,88.2c-0.3-0.1-0.6-0.2-0.9-0.2c-0.1,0-0.2,0-0.3-0.1 c-0.2,0-0.4-0.1-0.5-0.1s-0.2,0-0.3-0.1c-0.2,0-0.4-0.1-0.5-0.1s-0.2,0-0.3,0c-0.8-0.1-1.7-0.2-2.5-0.2c-0.2,0-0.3,0-0.4,0 c-0.2-1.1-0.4-2.4-0.4-3.6c0-0.3,0-0.6,0-0.9c0-0.1,0-0.2,0-0.3c0-0.1,0-0.3,0-0.5c0-0.1,0-0.2,0-0.3c0-0.1,0-0.2,0-0.3 c0-0.1,0-0.3,0.1-0.4c0-0.3,0.1-0.5,0.2-0.8v-0.1c0.1-0.5,0.3-1,0.5-1.4l0,0l0,0c0.1-0.1,0.1-0.3,0.2-0.4l0.1,0.1 c0.2,0.2,0.4,0.3,0.7,0.5c0.2,0.2,0.4,0.4,0.6,0.7c0.3,0.4,0.6,0.8,0.9,1.2c0.2,0.2,0.3,0.5,0.5,0.7c0.1,0.1,0.1,0.2,0.2,0.3 c0.1,0.1,0.2,0.3,0.3,0.4c0.1,0.2,0.2,0.4,0.3,0.7c0.2,0.4,0.4,0.9,0.6,1.3C30.1,85.8,30.4,87.1,30.5,88.2z M30.1,78.6 c-0.3,0.4-0.6,0.9-0.9,1.5c-0.5-0.7-0.9-1.3-1.5-1.8c-0.2-0.2-0.5-0.4-0.7-0.6s-0.4-0.4-0.6-0.5l-0.1-0.1l-1.4-0.9L24,77.8 c-0.3,0.5-0.5,1.1-0.7,1.7c-0.2-0.1-0.4-0.3-0.6-0.4c-0.8-1.7-1.2-3.3-1.2-4.6c1.1,0.1,2.4,0.7,3.7,1.4c0.3-1,0.7-2,1.2-2.8 c0.2-0.4,0.4-0.8,0.7-1.1c0.2-0.3,0.4-0.6,0.7-0.9c0.3-0.3,0.5-0.6,0.8-0.8C29.7,72,30.3,75.6,30.1,78.6z M20.3,78 c-0.4-0.2-0.9-0.3-1.3-0.4c-1.3-2.8-2-6.6-1.3-8.8c1.1,0.4,2.2,1.2,3.3,2.3c0.3-2.2,1-4.2,2-5.4c1.1,1,2,2.9,2.7,4.9 c-0.7,0.9-1.2,1.9-1.6,2.9c-0.8-0.3-1.6-0.6-2.5-0.7l-1.8-0.2l-0.1,1.8C19.6,75.4,19.8,76.7,20.3,78z M21.6,11.9l1.3-4.1l1.3,4.1 h4.3L25,14.4l1.3,4.1L22.8,16l-3.5,2.5l1.3-4.1l-3.5-2.5H21.6z M21.6,30.8l1.3-4.1l1.3,4.1h4.3L25,33.4l1.3,4.1L22.8,35l-3.5,2.5 l1.3-4.1l-3.5-2.5h4.5C21.6,30.9,21.6,30.8,21.6,30.8z M17.4,79.1c0.1,0,0.3,0,0.4,0c0.4,0,0.7,0.1,1.1,0.2s0.9,0.3,1.3,0.4 c0.3,0.1,0.7,0.3,1,0.5c0.5,0.2,1,0.5,1.4,0.8c0.1,0,0.1,0.1,0.2,0.1v0.1v0.1c0,0.3-0.1,0.6-0.1,0.9c0,0.1,0,0.2,0,0.4 c0,0.2,0,0.3,0,0.5c-0.1,1.5,0.1,3.1,0.4,4.5c-0.3,0-0.5,0.1-0.7,0.2C19.8,85.6,17.5,81.7,17.4,79.1z M22,89.8 c0-0.1-0.1-0.1-0.1-0.2c0.3-0.1,0.6-0.2,1-0.3c0.2,0,0.3-0.1,0.5-0.1c0.3,0,0.6,0,0.9-0.1l0,0c0.3,0,0.6-0.1,0.9-0.1l0,0 c0.5,0,1,0,1.5,0.1c0.3,0,0.7,0.1,1,0.1c0.1,0,0.1,0,0.2,0c0.2,0,0.5,0.1,0.7,0.1c0.1,0,0.2,0,0.2,0c0.2,0,0.4,0.1,0.6,0.1 c0.3,0.1,0.7,0.2,1,0.3c0.3,0.1,0.6,0.2,0.8,0.3c0.3,0.1,0.5,0.2,0.8,0.3c0.5,0.2,0.9,0.4,1.3,0.7c-0.1,0.6-0.1,1.2-0.1,1.8 c0,0.3,0,0.6,0,0.9c0,0.2,0,0.4,0,0.7c-0.6,0.1-1.2,0.2-1.7,0.3c-0.7,0.2-1.4,0.4-2,0.6C26.6,94.4,23.2,92,22,89.8z M36.4,101.4 c-0.5-0.1-0.9-0.2-1.4-0.4c-2.4-0.8-4.6-2-5.7-3.4c0.1-0.1,0.3-0.2,0.5-0.2c0.4-0.2,0.8-0.4,1.2-0.5c0.7-0.2,1.6-0.4,2.4-0.5 c0.3,0,0.6-0.1,0.9-0.1c0.2,0,0.4,0,0.6,0c0.1,0,0.2,0,0.2,0c0.3,0,0.6,0,0.9,0l0,0c1.9,0,3.7,0.3,5,0.8l0,0 c0.2,0.9,0.6,1.9,1,2.8c0,0.1,0.1,0.2,0.1,0.3c-0.1,0-0.1,0-0.2,0c-0.3,0.1-0.7,0.1-1,0.2c-1.2,0.3-2.4,0.6-3.3,1.1 c-0.2,0.1-0.3,0.1-0.5,0.2C37,101.5,36.7,101.4,36.4,101.4z M70.4,105.7c-2.6,0-5.4-0.7-6.6-1.8c-1.4,0.1-3,0.5-4.6,1.2 c0.3,0.2,0.6,0.4,0.9,0.6c0.3,0.2,0.6,0.4,0.8,0.6c0.7,0.5,1.1,0.9,1.1,0.9s-0.8,0.1-2.3,1.2c-0.4-0.4-0.9-0.8-1.3-1.1 c-0.2-0.2-0.5-0.4-0.7-0.6c-0.3-0.2-0.5-0.4-0.8-0.5c-1.4,0.8-2.7,1.7-3.7,2.7c-1.3-0.8-2.3-0.9-2.3-0.9s1.4-1.6,4-3 c-0.3-0.2-0.6-0.3-1-0.4c-0.3-0.1-0.7-0.3-1-0.4c-0.6-0.2-1.1-0.4-1.7-0.5c-0.3-0.1-0.6-0.1-0.8-0.2c-0.3-0.1-0.6-0.1-0.9-0.1 c-0.1,0.3-0.1,0.5-0.3,0.7l0,0l-0.1,0.1c-0.8,0.9-2.6,1.3-4.6,1.3c-2.6,0-5.6-0.7-7.1-1.9c0.1-0.1,0.2-0.1,0.3-0.2 c0.1,0,0.1-0.1,0.2-0.1c0.3-0.2,0.6-0.4,1-0.6c0.9-0.4,2.1-0.7,3.2-0.9c0.4-0.1,0.8-0.2,1.2-0.2c0.4-0.1,0.8-0.1,1.2-0.2h0.1v-0.1 c-0.2-0.4-0.4-0.8-0.5-1.3c-0.4-1-0.8-2-1.1-2.9c-0.1-0.4-0.2-0.8-0.3-1.2c-0.1-0.6-0.1-1.1,0-1.5c2.7,0.8,6.1,4.9,6.8,7.7 c0.3,0,0.6,0,0.9,0.1c0.3,0,0.6,0.1,0.9,0.1c1.3,0.2,2.5,0.5,3.6,0.9c0.4,0.1,0.8,0.3,1.1,0.4c0.4,0.2,0.7,0.3,1.1,0.5 c1.7-0.7,3.8-1.3,6.2-1.4c-0.1-2.7,3.7-7.5,6.5-8.4c0.2,0.6,0.2,1.3,0.1,2.1c0,0.3,0,0.7-0.1,1.1c-0.2,1.1-0.5,2.3-1,3.4 c-0.1,0.2-0.1,0.3-0.2,0.5c0.2,0.1,0.4,0.1,0.5,0.2c1.4,0.5,2.7,1.2,3.8,2c0.4,0.3,0.8,0.7,1.2,1c0.2,0.2,0.4,0.5,0.6,0.7 C73.6,105.4,72,105.7,70.4,105.7z M77.1,102.5c-0.5,0-1,0.1-1.5,0.1c-0.3,0-0.5,0-0.8,0c-0.1,0-0.1-0.1-0.2-0.1 c-0.9-0.7-1.9-1.4-2.9-1.9c-0.3-0.1-0.6-0.3-0.9-0.4c0.2-0.5,0.3-1.1,0.5-1.7c0.1-0.4,0.1-0.7,0.2-1.1c0.2-0.1,0.5-0.1,0.8-0.1 c0.1,0,0.3,0,0.4,0c0.2,0,0.4,0,0.6,0c0.1,0,0.2,0,0.2,0c0.3,0,0.6,0,0.9,0c1,0.1,2.2,0.3,3.2,0.6c0.3,0.1,0.5,0.2,0.8,0.3 c0.3,0.1,0.5,0.2,0.8,0.3c0.3,0.1,0.6,0.2,0.8,0.3c0.4,0.2,0.8,0.4,1.2,0.6c0.4,0.2,0.7,0.4,1,0.7c0.3,0.2,0.6,0.5,0.8,0.8 C81.8,101.7,79.5,102.3,77.1,102.5z M82.6,98.1c-0.6-0.4-1.3-0.8-2-1.1c-0.3-0.1-0.7-0.3-1-0.4c0-0.3,0.1-0.5,0.1-0.8s0-0.7,0-1 c0-0.5,0-0.9,0-1.4c0.2,0,0.4,0,0.6,0c0.4,0,0.7,0,1.1,0c0.3,0,0.6,0,0.9,0.1c1.3,0.1,2.6,0.4,3.7,0.8c0.4,0.1,0.7,0.3,1,0.4 c0.3,0.2,0.6,0.3,0.8,0.5c0,0,0.1,0,0.1,0.1C86.9,96.5,84.8,97.5,82.6,98.1z M91.9,89.6c-0.7,1.1-1.9,2.2-3.3,3.1 c-0.2,0.2-0.5,0.3-0.7,0.5c-0.3-0.1-0.5-0.3-0.8-0.4c-0.6-0.2-1.2-0.4-1.9-0.6c-0.3-0.1-0.6-0.2-1-0.2c-0.4-0.1-0.8-0.1-1.2-0.2 c-0.2,0-0.5-0.1-0.7-0.1c-0.1,0-0.2,0-0.3,0c-0.2,0-0.3,0-0.5,0c-0.4,0-0.8,0-1.2,0c-0.1,0-0.3,0-0.4,0s-0.2,0-0.4,0 c0.1-0.1,0.1-0.1,0.2-0.2c0.2-0.2,0.4-0.4,0.7-0.6c0.4-0.3,0.8-0.5,1.2-0.7c0.3-0.1,0.5-0.3,0.8-0.4c0.2-0.1,0.4-0.2,0.6-0.2 c0.1,0,0.1,0,0.2-0.1c0.2-0.1,0.4-0.1,0.6-0.2c0.3-0.1,0.6-0.2,0.9-0.2h0.1c0.3-0.1,0.6-0.1,0.9-0.2s0.6-0.1,0.9-0.1 c0.7-0.1,1.4-0.2,2.1-0.2c0.1,0,0.2,0,0.4,0c0.2,0,0.3,0,0.5,0c0.3,0,0.6,0,0.9,0.1c0,0,0,0,0.1,0c0.4,0,0.7,0.1,1,0.2 s0.6,0.1,0.8,0.2C92.2,89.2,92,89.4,91.9,89.6z M95.3,80.8c-0.2,1.9-1.6,4.4-3.4,6.4c-0.4-0.1-0.8-0.2-1.3-0.2c0-0.4,0-0.9,0-1.3 c0-0.3,0-0.6,0-0.9s-0.1-0.6-0.1-0.9c0-0.5-0.1-1.1-0.2-1.6c0.9-0.5,1.9-0.9,2.8-1.1c0.4-0.1,0.8-0.2,1.1-0.2 c0.3,0,0.6-0.1,0.9-0.1C95.2,80.8,95.3,80.8,95.3,80.8L95.3,80.8z M95,77c-0.2,0.7-0.5,1.5-0.8,2.2c-0.3,0-0.6,0.1-0.9,0.1 c-1.1,0.2-2.2,0.6-3.4,1.2c-0.1-0.3-0.2-0.5-0.2-0.7c-0.2-0.6-0.5-1.2-0.8-1.7L88,76.8l-0.1-0.2l-0.7,0.5l-0.7,0.6l0,0 c-0.6,0.4-1.1,1-1.6,1.7c-0.2-0.4-0.4-0.8-0.7-1.1c-0.1-2.7,0.4-5.6,1.6-7.1c0.3,0.2,0.6,0.5,0.8,0.8c0.3,0.3,0.5,0.6,0.7,0.9 c0.2,0.4,0.5,0.7,0.7,1.1c0.5,0.9,1,2,1.3,3c1.2-1.6,2.6-3,4.1-4c0.3-0.2,0.5-0.3,0.8-0.5s0.6-0.3,0.8-0.4 c0.2-0.1,0.4-0.1,0.5-0.2C95.8,73.3,95.6,75.2,95,77z"></path> </g> <g> <path class="st0" d="M173.5,15.8c-0.4-2.1-1.1-3.5-2.1-4.4c-1-0.9-2.4-1.3-4-1.3c-1.2,0-2.2,0.3-3,0.9c-0.8,0.6-1.5,1.4-2.1,2.4 c-0.5,1-0.9,2.1-1.2,3.4c-0.3,1.3-0.4,2.6-0.4,4.1c0,1.3,0.1,2.7,0.3,4c0.2,1.3,0.6,2.5,1.1,3.5c0.5,1,1.2,1.8,2.1,2.5 c0.9,0.6,2,0.9,3.3,0.9c0.8,0,1.6-0.2,2.3-0.5c0.7-0.3,1.3-0.8,1.8-1.4c0.5-0.6,0.9-1.3,1.3-2.1c0.3-0.8,0.6-1.7,0.8-2.7h1.9 c-0.2,1.2-0.5,2.3-0.9,3.3c-0.4,1-1,2-1.6,2.7c-0.7,0.8-1.5,1.4-2.4,1.9c-1,0.5-2.1,0.7-3.4,0.7c-1.5,0-2.8-0.3-3.8-1 c-1.1-0.7-1.9-1.6-2.6-2.8c-0.7-1.2-1.2-2.5-1.5-4c-0.3-1.5-0.5-3.2-0.5-4.9c0-2.3,0.2-4.3,0.7-5.9c0.5-1.6,1.1-2.9,1.9-3.9 c0.8-1,1.8-1.8,2.8-2.2c1.1-0.5,2.3-0.7,3.6-0.7c1,0,1.9,0.2,2.8,0.5c0.9,0.3,1.6,0.8,2.3,1.5c0.7,0.6,1.2,1.5,1.6,2.4 c0.4,1,0.7,2.1,0.9,3.3H173.5z"></path> <path class="st0" d="M179.9,24.8c0,0.9,0.1,1.8,0.3,2.7c0.2,0.8,0.5,1.6,0.9,2.2c0.4,0.6,0.9,1.1,1.5,1.5c0.6,0.4,1.3,0.6,2,0.6 c1.1,0,2-0.3,2.7-1c0.8-0.7,1.3-1.7,1.5-3h1.8c-0.2,0.8-0.5,1.6-0.8,2.3c-0.3,0.7-0.7,1.3-1.2,1.8c-0.5,0.5-1.1,0.9-1.7,1.2 c-0.7,0.3-1.4,0.4-2.3,0.4c-1.1,0-2.1-0.2-2.9-0.7c-0.8-0.5-1.5-1.1-2-1.9c-0.5-0.8-0.9-1.8-1.2-2.9c-0.3-1.1-0.4-2.3-0.4-3.6 c0-1.3,0.1-2.5,0.4-3.6c0.3-1.1,0.7-2.1,1.3-2.9c0.5-0.8,1.2-1.5,2-2c0.8-0.5,1.7-0.7,2.7-0.7c1.9,0,3.4,0.8,4.5,2.5 c1.1,1.6,1.6,4,1.6,7.2H179.9z M189,23.1c0-0.9-0.1-1.7-0.3-2.4c-0.2-0.8-0.5-1.4-0.8-1.9c-0.4-0.5-0.8-1-1.4-1.3 c-0.6-0.3-1.2-0.5-1.9-0.5c-0.7,0-1.3,0.2-1.9,0.5c-0.5,0.3-1,0.8-1.4,1.3c-0.4,0.6-0.7,1.2-0.9,1.9c-0.2,0.7-0.4,1.5-0.5,2.4H189 z"></path> <path class="st0" d="M195.5,33h-1.6V15.6h1.6V18c0.6-0.9,1.3-1.5,2-2.1c0.7-0.5,1.5-0.8,2.5-0.8c0.9,0,1.7,0.2,2.4,0.6 c0.7,0.4,1.4,1,1.9,1.9c0.3,0.6,0.5,1.3,0.6,1.9c0.1,0.7,0.1,1.3,0.1,2.1V33h-1.6V21.6c0-1.6-0.3-2.7-0.8-3.5 c-0.6-0.8-1.5-1.2-2.8-1.2c-0.5,0-1,0.1-1.4,0.3c-0.4,0.2-0.8,0.4-1.1,0.8c-0.3,0.3-0.6,0.7-0.8,1.1c-0.2,0.4-0.4,0.8-0.5,1.3 c-0.2,0.6-0.3,1.1-0.3,1.6c0,0.5-0.1,1.1-0.1,1.7V33z"></path> <path class="st0" d="M213.8,33.1c-0.2,0-0.5,0.1-0.8,0.2c-0.3,0.1-0.7,0.2-1.1,0.2c-0.8,0-1.4-0.3-1.8-0.8 c-0.4-0.5-0.6-1.4-0.6-2.7V17.3h-2v-1.7h2v-4.8h1.6v4.8h2.6v1.7H211v11.9c0,0.4,0,0.8,0,1.1c0,0.3,0.1,0.6,0.2,0.8 c0.1,0.2,0.2,0.3,0.4,0.4c0.2,0.1,0.5,0.1,0.8,0.1c0.2,0,0.4,0,0.7-0.1c0.2,0,0.4-0.1,0.7-0.2V33.1z"></path> <path class="st0" d="M218.1,33h-1.6V15.6h1.6v3.3h0.1c0.4-1.4,1-2.4,1.7-2.9c0.7-0.5,1.6-0.8,2.8-0.8v2.2c-0.9,0-1.7,0.2-2.3,0.5 c-0.6,0.4-1.1,0.9-1.4,1.5c-0.3,0.6-0.6,1.4-0.7,2.3c-0.1,0.9-0.2,1.8-0.2,2.8V33z"></path> <path class="st0" d="M230.4,33.5c-0.9,0-1.7-0.2-2.5-0.6c-0.8-0.4-1.5-1-2-1.7c-0.6-0.8-1-1.7-1.4-2.9c-0.3-1.1-0.5-2.5-0.5-4 c0-1.3,0.1-2.5,0.4-3.6c0.3-1.1,0.7-2.1,1.2-2.9c0.5-0.8,1.2-1.5,2-2c0.8-0.5,1.7-0.7,2.8-0.7c1.1,0,2,0.2,2.8,0.7 c0.8,0.5,1.5,1.1,2,1.9c0.5,0.8,0.9,1.8,1.2,2.9c0.3,1.1,0.4,2.3,0.4,3.6c0,1.4-0.2,2.6-0.5,3.8c-0.3,1.1-0.7,2.1-1.3,2.9 c-0.6,0.8-1.2,1.4-2,1.9C232.2,33.2,231.4,33.5,230.4,33.5z M235.1,24.3c0-1-0.1-2-0.3-2.9c-0.2-0.9-0.5-1.7-0.8-2.3 c-0.4-0.7-0.9-1.2-1.5-1.6c-0.6-0.4-1.3-0.6-2.2-0.6c-0.8,0-1.6,0.2-2.2,0.6c-0.6,0.4-1.1,1-1.5,1.6c-0.4,0.7-0.7,1.5-0.8,2.4 c-0.2,0.9-0.3,1.8-0.3,2.7c0,1.1,0.1,2.1,0.3,3c0.2,0.9,0.5,1.7,0.9,2.3c0.4,0.6,0.9,1.2,1.5,1.5c0.6,0.4,1.3,0.5,2,0.5 c0.8,0,1.6-0.2,2.2-0.6c0.6-0.4,1.1-1,1.5-1.7c0.4-0.7,0.7-1.5,0.8-2.4C235,26.1,235.1,25.2,235.1,24.3z"></path> <path class="st0" d="M258.1,8.8h1.6V33h-1.6v-3.1H258c-0.2,0.6-0.5,1.1-0.9,1.5c-0.4,0.4-0.8,0.8-1.2,1.1 c-0.4,0.3-0.9,0.5-1.4,0.7c-0.5,0.2-0.9,0.2-1.4,0.2c-1.1,0-2.1-0.2-2.9-0.7c-0.8-0.5-1.4-1.1-1.9-1.9c-0.5-0.8-0.9-1.8-1.1-2.9 c-0.2-1.1-0.3-2.3-0.3-3.6c0-1.2,0.1-2.4,0.4-3.5c0.3-1.1,0.6-2.1,1.1-2.9s1.2-1.5,1.9-2c0.8-0.5,1.7-0.8,2.8-0.8 c1,0,1.9,0.3,2.8,0.8c0.9,0.5,1.6,1.4,2.1,2.4V8.8z M258.1,24.2c0-1-0.1-1.9-0.3-2.8c-0.2-0.9-0.5-1.7-0.9-2.3 c-0.4-0.7-0.9-1.2-1.5-1.6c-0.6-0.4-1.2-0.6-2-0.6c-0.8,0-1.6,0.2-2.2,0.6c-0.6,0.4-1.1,1-1.5,1.7c-0.4,0.7-0.7,1.6-0.9,2.5 c-0.2,1-0.3,2-0.2,3.1c0,1.1,0.1,2.1,0.4,2.9c0.2,0.8,0.6,1.6,1,2.1c0.4,0.6,0.9,1,1.5,1.3c0.6,0.3,1.2,0.5,1.9,0.5 c0.8,0,1.4-0.2,2-0.6c0.6-0.4,1.1-0.9,1.5-1.6c0.4-0.7,0.7-1.4,0.9-2.4C258,26.3,258.1,25.3,258.1,24.2z"></path> <path class="st0" d="M264.8,24.8c0,0.9,0.1,1.8,0.3,2.7c0.2,0.8,0.5,1.6,0.9,2.2c0.4,0.6,0.9,1.1,1.5,1.5c0.6,0.4,1.3,0.6,2,0.6 c1.1,0,2-0.3,2.7-1c0.8-0.7,1.3-1.7,1.5-3h1.8c-0.2,0.8-0.5,1.6-0.8,2.3c-0.3,0.7-0.7,1.3-1.2,1.8c-0.5,0.5-1.1,0.9-1.7,1.2 c-0.7,0.3-1.4,0.4-2.3,0.4c-1.1,0-2.1-0.2-2.9-0.7c-0.8-0.5-1.5-1.1-2-1.9c-0.5-0.8-0.9-1.8-1.2-2.9c-0.3-1.1-0.4-2.3-0.4-3.6 c0-1.3,0.1-2.5,0.4-3.6c0.3-1.1,0.7-2.1,1.3-2.9c0.5-0.8,1.2-1.5,2-2c0.8-0.5,1.7-0.7,2.7-0.7c1.9,0,3.4,0.8,4.5,2.5 c1.1,1.6,1.6,4,1.6,7.2H264.8z M273.9,23.1c0-0.9-0.1-1.7-0.3-2.4c-0.2-0.8-0.5-1.4-0.8-1.9c-0.4-0.5-0.8-1-1.4-1.3 c-0.6-0.3-1.2-0.5-1.9-0.5c-0.7,0-1.3,0.2-1.9,0.5c-0.5,0.3-1,0.8-1.4,1.3c-0.4,0.6-0.7,1.2-0.9,1.9c-0.2,0.7-0.4,1.5-0.5,2.4 H273.9z"></path> <path class="st0" d="M286.3,33V8.8h12.5v1.9h-10.6v8.7h9.7v1.9h-9.7V33H286.3z"></path> <path class="st0" d="M306.7,33.5c-0.9,0-1.7-0.2-2.5-0.6c-0.8-0.4-1.5-1-2-1.7c-0.6-0.8-1-1.7-1.4-2.9c-0.3-1.1-0.5-2.5-0.5-4 c0-1.3,0.1-2.5,0.4-3.6c0.3-1.1,0.7-2.1,1.2-2.9c0.5-0.8,1.2-1.5,2-2c0.8-0.5,1.7-0.7,2.8-0.7c1.1,0,2,0.2,2.8,0.7 c0.8,0.5,1.5,1.1,2,1.9c0.5,0.8,0.9,1.8,1.2,2.9c0.3,1.1,0.4,2.3,0.4,3.6c0,1.4-0.2,2.6-0.5,3.8c-0.3,1.1-0.7,2.1-1.3,2.9 c-0.6,0.8-1.2,1.4-2,1.9C308.6,33.2,307.7,33.5,306.7,33.5z M311.5,24.3c0-1-0.1-2-0.3-2.9c-0.2-0.9-0.5-1.7-0.8-2.3 c-0.4-0.7-0.9-1.2-1.5-1.6c-0.6-0.4-1.3-0.6-2.2-0.6c-0.8,0-1.6,0.2-2.2,0.6c-0.6,0.4-1.1,1-1.5,1.6c-0.4,0.7-0.7,1.5-0.8,2.4 c-0.2,0.9-0.3,1.8-0.3,2.7c0,1.1,0.1,2.1,0.3,3c0.2,0.9,0.5,1.7,0.9,2.3c0.4,0.6,0.9,1.2,1.5,1.5c0.6,0.4,1.3,0.5,2,0.5 c0.8,0,1.6-0.2,2.2-0.6c0.6-0.4,1.1-1,1.5-1.7c0.4-0.7,0.7-1.5,0.8-2.4C311.4,26.1,311.5,25.2,311.5,24.3z"></path> <path class="st0" d="M317.9,33h-1.6V15.6h1.6v3.3h0.1c0.4-1.4,1-2.4,1.7-2.9c0.7-0.5,1.6-0.8,2.8-0.8v2.2c-0.9,0-1.7,0.2-2.3,0.5 c-0.6,0.4-1.1,0.9-1.4,1.5c-0.3,0.6-0.6,1.4-0.7,2.3c-0.1,0.9-0.2,1.8-0.2,2.8V33z"></path> <path class="st0" d="M327,33h-1.6V15.6h1.6v2.6h0.1c0.4-1,1-1.8,1.8-2.3c0.8-0.5,1.6-0.8,2.5-0.8c0.6,0,1.2,0.1,1.6,0.3 c0.4,0.2,0.8,0.4,1.1,0.7c0.3,0.3,0.6,0.7,0.8,1.1c0.2,0.4,0.4,0.8,0.5,1.3c0.5-1.1,1.1-2,1.9-2.5c0.8-0.5,1.7-0.8,2.7-0.8 c0.9,0,1.7,0.2,2.3,0.6c0.6,0.4,1,0.9,1.3,1.5c0.3,0.6,0.5,1.4,0.6,2.2c0.1,0.8,0.1,1.7,0.1,2.6v11h-1.6V21c0-1.3-0.2-2.2-0.6-3 c-0.4-0.7-1.2-1.1-2.4-1.1c-0.6,0-1.2,0.2-1.7,0.5c-0.5,0.3-1,0.8-1.4,1.5c-0.2,0.3-0.3,0.6-0.4,1c-0.1,0.4-0.2,0.8-0.3,1.2 c-0.1,0.4-0.1,0.9-0.1,1.3c0,0.4,0,0.8,0,1.2V33h-1.6V21c0-1.3-0.2-2.2-0.6-3c-0.4-0.7-1.2-1.1-2.4-1.1c-0.6,0-1.2,0.2-1.7,0.5 c-0.5,0.3-1,0.8-1.4,1.5c-0.2,0.3-0.3,0.6-0.4,1c-0.1,0.4-0.2,0.8-0.3,1.2c-0.1,0.4-0.1,0.9-0.1,1.3c0,0.4,0,0.8,0,1.2V33z"></path> <path class="st0" d="M354.5,22.8c0.3,0,0.7-0.1,1.1-0.2c0.4-0.1,0.8-0.2,1-0.4c0.3-0.2,0.4-0.4,0.5-0.8c0.1-0.4,0.1-0.7,0.1-1 c0-1-0.3-1.9-0.8-2.5c-0.5-0.7-1.4-1-2.7-1c-0.6,0-1.1,0.1-1.5,0.2c-0.5,0.1-0.9,0.3-1.2,0.6s-0.6,0.7-0.9,1.2 c-0.2,0.5-0.4,1.1-0.4,1.9H348c0.1-1,0.2-1.9,0.6-2.6c0.3-0.7,0.7-1.3,1.2-1.8c0.5-0.5,1.1-0.8,1.8-1c0.7-0.2,1.4-0.3,2.1-0.3 c0.7,0,1.4,0.1,2,0.3c0.6,0.2,1.2,0.5,1.6,0.9c0.5,0.4,0.8,1,1.1,1.7c0.3,0.7,0.4,1.5,0.4,2.6V30c0,0.8,0.1,1.3,0.3,1.5 c0.2,0.2,0.7,0.2,1.4-0.2v1.6c-0.1,0-0.3,0.1-0.6,0.2c-0.2,0.1-0.5,0.1-0.7,0.1c-0.3,0-0.5,0-0.7-0.1c-0.3,0-0.5-0.2-0.6-0.3 s-0.3-0.4-0.4-0.6c-0.1-0.2-0.2-0.5-0.2-0.8c0-0.3-0.1-0.6-0.1-0.9c-0.7,0.9-1.5,1.7-2.3,2.1c-0.9,0.5-1.8,0.7-2.8,0.7 c-0.6,0-1.2-0.1-1.8-0.3c-0.6-0.2-1.1-0.5-1.5-0.9c-0.4-0.4-0.8-0.9-1-1.6c-0.3-0.6-0.4-1.3-0.4-2.2c0-3,1.6-4.7,4.9-5.2 L354.5,22.8z M357.2,23.9c-0.7,0.4-1.4,0.6-2.1,0.7c-0.7,0.1-1.4,0.2-2.1,0.3c-1.2,0.1-2.2,0.5-2.9,1c-0.7,0.6-1,1.5-1,2.7 c0,0.5,0.1,1,0.3,1.4c0.2,0.4,0.4,0.7,0.7,1c0.3,0.3,0.6,0.4,1,0.6c0.4,0.1,0.7,0.2,1.1,0.2c0.6,0,1.3-0.1,1.9-0.3 c0.6-0.2,1.2-0.5,1.6-0.9c0.5-0.4,0.9-0.9,1.1-1.6c0.3-0.6,0.4-1.4,0.4-2.3V23.9z"></path> <path class="st0" d="M372.9,21.1c-0.3-1.3-0.8-2.3-1.5-3c-0.7-0.7-1.6-1.1-2.7-1.1c-0.8,0-1.5,0.2-2.1,0.6c-0.6,0.4-1.1,1-1.5,1.7 c-0.4,0.7-0.7,1.5-0.8,2.4c-0.2,0.9-0.3,1.8-0.3,2.7c0,0.9,0.1,1.8,0.3,2.7c0.2,0.9,0.4,1.7,0.8,2.4c0.4,0.7,0.9,1.2,1.5,1.7 c0.6,0.4,1.3,0.6,2.2,0.6c1.2,0,2.2-0.4,2.9-1.2c0.7-0.8,1.2-2,1.4-3.4h1.7c-0.1,1-0.4,1.8-0.7,2.6c-0.3,0.8-0.7,1.5-1.2,2 c-0.5,0.6-1.1,1-1.8,1.3c-0.7,0.3-1.5,0.5-2.3,0.5c-1.1,0-2.1-0.2-2.9-0.7c-0.8-0.5-1.5-1.1-2-1.9c-0.5-0.8-0.9-1.8-1.2-2.9 c-0.3-1.1-0.4-2.3-0.4-3.6c0-1.2,0.1-2.4,0.4-3.5c0.3-1.1,0.7-2.1,1.2-2.9c0.5-0.9,1.2-1.5,2-2c0.8-0.5,1.7-0.8,2.8-0.8 c1.6,0,2.9,0.5,3.9,1.4c1,1,1.6,2.5,1.9,4.5H372.9z"></path> <path class="st0" d="M378.2,11.8v-3h1.8v3H378.2z M378.2,33V15.6h1.6V33H378.2z"></path> <path class="st0" d="M389.5,33.5c-0.9,0-1.7-0.2-2.5-0.6c-0.8-0.4-1.5-1-2-1.7c-0.6-0.8-1-1.7-1.4-2.9c-0.3-1.1-0.5-2.5-0.5-4 c0-1.3,0.1-2.5,0.4-3.6c0.3-1.1,0.7-2.1,1.2-2.9c0.5-0.8,1.2-1.5,2-2c0.8-0.5,1.7-0.7,2.8-0.7c1.1,0,2,0.2,2.8,0.7 c0.8,0.5,1.5,1.1,2,1.9c0.5,0.8,0.9,1.8,1.2,2.9c0.3,1.1,0.4,2.3,0.4,3.6c0,1.4-0.2,2.6-0.5,3.8c-0.3,1.1-0.7,2.1-1.3,2.9 c-0.6,0.8-1.2,1.4-2,1.9C391.4,33.2,390.5,33.5,389.5,33.5z M394.3,24.3c0-1-0.1-2-0.3-2.9c-0.2-0.9-0.5-1.7-0.8-2.3 c-0.4-0.7-0.9-1.2-1.5-1.6c-0.6-0.4-1.3-0.6-2.2-0.6c-0.8,0-1.6,0.2-2.2,0.6c-0.6,0.4-1.1,1-1.5,1.6c-0.4,0.7-0.7,1.5-0.8,2.4 c-0.2,0.9-0.3,1.8-0.3,2.7c0,1.1,0.1,2.1,0.3,3c0.2,0.9,0.5,1.7,0.9,2.3c0.4,0.6,0.9,1.2,1.5,1.5c0.6,0.4,1.3,0.5,2,0.5 c0.8,0,1.6-0.2,2.2-0.6c0.6-0.4,1.1-1,1.5-1.7c0.4-0.7,0.7-1.5,0.8-2.4C394.2,26.1,394.3,25.2,394.3,24.3z M388,13.7l3-4.7h2.1 l-3.7,4.7H388z"></path> <path class="st0" d="M400.6,33H399V15.6h1.6V18c0.6-0.9,1.3-1.5,2-2.1c0.7-0.5,1.5-0.8,2.5-0.8c0.9,0,1.7,0.2,2.4,0.6 c0.7,0.4,1.4,1,1.9,1.9c0.3,0.6,0.5,1.3,0.6,1.9c0.1,0.7,0.1,1.3,0.1,2.1V33h-1.6V21.6c0-1.6-0.3-2.7-0.8-3.5 c-0.6-0.8-1.5-1.2-2.8-1.2c-0.5,0-1,0.1-1.4,0.3c-0.4,0.2-0.8,0.4-1.1,0.8c-0.3,0.3-0.6,0.7-0.8,1.1c-0.2,0.4-0.4,0.8-0.5,1.3 c-0.2,0.6-0.3,1.1-0.3,1.6c0,0.5-0.1,1.1-0.1,1.7V33z"></path> <path class="st0" d="M421.3,37.7c0.2,0,0.4,0.1,0.7,0.1c0.2,0,0.5,0.1,0.7,0.1c0.4,0,0.8-0.2,1.1-0.5c0.3-0.4,0.5-0.8,0.7-1.3 c0.2-0.5,0.3-1,0.5-1.6c0.1-0.5,0.3-1,0.4-1.4L420,15.6h1.8l4.5,14.9l4.5-14.9h1.7l-5.2,17.2c-0.3,1.1-0.6,2.1-0.9,3 c-0.3,0.9-0.6,1.6-0.9,2.2c-0.3,0.6-0.7,1.1-1.1,1.4c-0.4,0.3-0.9,0.5-1.4,0.5c-0.3,0-0.6,0-0.8-0.1c-0.3,0-0.5-0.1-0.7-0.2V37.7z "></path> <path class="st0" d="M161.5,57.9v11l-1.8,0V44.7h7.6c2.1,0,3.8,0.5,4.9,1.5c1.1,1,1.7,2.6,1.7,4.9c0,1.5-0.2,2.7-0.7,3.6 c-0.5,0.9-1.3,1.7-2.4,2.3c0.6,0.2,1,0.6,1.3,1.1s0.6,1,0.7,1.6c0.2,0.6,0.3,1.2,0.3,1.9c0,0.7,0.1,1.3,0.1,1.9 c0,0.9,0,1.7,0.1,2.3c0,0.6,0.1,1.1,0.2,1.5c0.1,0.4,0.1,0.7,0.2,0.9c0.1,0.2,0.2,0.4,0.3,0.5v0.2l-2,0c-0.2-0.4-0.3-1-0.4-1.7 c-0.1-0.7-0.1-1.5-0.2-2.3c0-0.8-0.1-1.5-0.1-2.3c0-0.7-0.1-1.3-0.1-1.8c-0.1-0.6-0.3-1.2-0.5-1.6c-0.2-0.4-0.5-0.7-0.9-0.9 c-0.3-0.2-0.7-0.3-1.1-0.4c-0.4-0.1-0.9-0.1-1.3-0.1H161.5z M167.2,56c0.7,0,1.3-0.1,1.9-0.3c0.6-0.2,1.1-0.5,1.5-0.9 c0.4-0.4,0.8-0.9,1-1.5c0.3-0.6,0.4-1.3,0.4-2.2c0-0.9-0.1-1.6-0.4-2.2c-0.3-0.6-0.6-1-1-1.4c-0.4-0.3-0.9-0.6-1.5-0.7 c-0.6-0.1-1.2-0.2-1.8-0.2h-5.8V56H167.2z"></path> <path class="st0" d="M178.4,60.7c0,0.9,0.1,1.8,0.3,2.7c0.2,0.8,0.5,1.6,0.9,2.2c0.4,0.6,0.9,1.1,1.5,1.5c0.6,0.4,1.3,0.6,2,0.6 c1.1,0,2-0.3,2.7-1c0.8-0.7,1.3-1.7,1.5-3h1.8c-0.2,0.8-0.5,1.6-0.8,2.3c-0.3,0.7-0.7,1.3-1.2,1.8c-0.5,0.5-1.1,0.9-1.7,1.2 c-0.7,0.3-1.4,0.4-2.3,0.4c-1.1,0-2.1-0.2-2.9-0.7c-0.8-0.5-1.5-1.1-2-1.9c-0.5-0.8-0.9-1.8-1.2-2.9c-0.3-1.1-0.4-2.3-0.4-3.6 c0-1.3,0.1-2.5,0.4-3.6c0.3-1.1,0.7-2.1,1.3-2.9c0.5-0.8,1.2-1.5,2-2c0.8-0.5,1.7-0.7,2.7-0.7c1.9,0,3.4,0.8,4.5,2.5 c1.1,1.6,1.6,4,1.6,7.2H178.4z M187.5,59c0-0.9-0.1-1.7-0.3-2.4c-0.2-0.8-0.5-1.4-0.8-1.9c-0.4-0.5-0.8-1-1.4-1.3 c-0.6-0.3-1.2-0.5-1.9-0.5c-0.7,0-1.3,0.2-1.9,0.5c-0.5,0.3-1,0.8-1.4,1.3c-0.4,0.6-0.7,1.2-0.9,1.9c-0.2,0.7-0.4,1.5-0.5,2.4 H187.5z"></path> <path class="st0" d="M202.3,57c-0.3-1.3-0.8-2.3-1.5-3c-0.7-0.7-1.6-1.1-2.7-1.1c-0.8,0-1.5,0.2-2.1,0.6c-0.6,0.4-1.1,1-1.5,1.7 s-0.7,1.5-0.8,2.4c-0.2,0.9-0.3,1.8-0.3,2.7c0,0.9,0.1,1.8,0.3,2.7c0.2,0.9,0.4,1.7,0.8,2.4c0.4,0.7,0.9,1.2,1.5,1.7 c0.6,0.4,1.3,0.6,2.2,0.6c1.2,0,2.2-0.4,2.9-1.2c0.7-0.8,1.2-2,1.4-3.4h1.7c-0.1,1-0.4,1.8-0.7,2.6c-0.3,0.8-0.7,1.5-1.2,2 c-0.5,0.6-1.1,1-1.8,1.3c-0.7,0.3-1.5,0.5-2.3,0.5c-1.1,0-2.1-0.2-2.9-0.7c-0.8-0.5-1.5-1.1-2-1.9c-0.5-0.8-0.9-1.8-1.2-2.9 c-0.3-1.1-0.4-2.3-0.4-3.6c0-1.2,0.1-2.4,0.4-3.5c0.3-1.1,0.7-2.1,1.2-2.9c0.5-0.9,1.2-1.5,2-2c0.8-0.5,1.7-0.8,2.8-0.8 c1.6,0,2.9,0.5,3.9,1.4c1,1,1.6,2.5,1.9,4.5H202.3z"></path> <path class="st0" d="M216.8,51.5h1.6v17.4h-1.6v-2.4c-0.2,0.3-0.5,0.6-0.7,1s-0.6,0.6-0.9,0.9c-0.3,0.3-0.8,0.5-1.2,0.7 c-0.5,0.2-1,0.3-1.6,0.3c-0.9,0-1.7-0.2-2.3-0.5c-0.6-0.3-1.1-0.8-1.5-1.4c-0.4-0.6-0.7-1.3-0.8-2c-0.2-0.8-0.3-1.6-0.3-2.5V51.5 h1.6v11.4c0,1.5,0.3,2.6,0.8,3.4c0.6,0.8,1.5,1.2,2.7,1.2c0.7,0,1.3-0.2,1.8-0.5c0.5-0.3,1-0.8,1.3-1.4c0.4-0.6,0.6-1.3,0.8-2.1 c0.2-0.8,0.3-1.7,0.3-2.7V51.5z"></path> <path class="st0" d="M224.1,68.9h-1.6V51.5h1.6v3.3h0.1c0.4-1.4,1-2.4,1.7-2.9c0.7-0.5,1.6-0.8,2.8-0.8v2.2 c-0.9,0-1.7,0.2-2.3,0.5c-0.6,0.4-1.1,0.9-1.4,1.5c-0.3,0.6-0.6,1.4-0.7,2.3c-0.1,0.9-0.2,1.8-0.2,2.8V68.9z"></path> <path class="st0" d="M232.3,63.4c0.3,1.5,0.7,2.6,1.4,3.2c0.7,0.6,1.6,0.9,2.8,0.9c0.6,0,1.1-0.1,1.5-0.3c0.4-0.2,0.8-0.4,1.1-0.7 c0.3-0.3,0.5-0.6,0.6-1c0.1-0.4,0.2-0.8,0.2-1.2c0-0.9-0.2-1.5-0.7-1.9c-0.4-0.4-1-0.7-1.7-1c-0.7-0.2-1.4-0.4-2.2-0.6 c-0.8-0.2-1.5-0.4-2.1-0.8c-0.7-0.3-1.2-0.8-1.7-1.4c-0.4-0.6-0.7-1.5-0.7-2.7c0-1.5,0.4-2.6,1.3-3.6c0.9-0.9,2.1-1.4,3.6-1.4 c1.5,0,2.7,0.4,3.7,1.3c0.9,0.8,1.5,2.2,1.7,4.2h-1.6c-0.1-1.3-0.6-2.3-1.2-2.8c-0.7-0.5-1.5-0.8-2.5-0.8c-1,0-1.8,0.3-2.3,0.8 c-0.5,0.5-0.8,1.3-0.8,2.2c0,0.8,0.2,1.4,0.7,1.8c0.4,0.4,1,0.8,1.7,1c0.7,0.3,1.4,0.5,2.2,0.7c0.8,0.2,1.5,0.5,2.1,0.9 c0.7,0.4,1.2,0.9,1.7,1.5c0.4,0.6,0.7,1.5,0.7,2.6c0,0.8-0.1,1.6-0.4,2.2c-0.3,0.6-0.7,1.2-1.2,1.6c-0.5,0.4-1.1,0.7-1.8,1 c-0.7,0.2-1.4,0.3-2.3,0.3c-0.8,0-1.6-0.2-2.2-0.5c-0.6-0.3-1.2-0.7-1.6-1.3c-0.4-0.5-0.8-1.2-1-1.9c-0.3-0.7-0.4-1.5-0.4-2.3 H232.3z"></path> <path class="st0" d="M250.3,69.4c-0.9,0-1.7-0.2-2.5-0.6c-0.8-0.4-1.5-1-2-1.7c-0.6-0.8-1-1.7-1.4-2.9c-0.3-1.1-0.5-2.5-0.5-4 c0-1.3,0.1-2.5,0.4-3.6c0.3-1.1,0.7-2.1,1.2-2.9c0.5-0.8,1.2-1.5,2-2c0.8-0.5,1.7-0.7,2.8-0.7c1.1,0,2,0.2,2.8,0.7 c0.8,0.5,1.5,1.1,2,1.9c0.5,0.8,0.9,1.8,1.2,2.9c0.3,1.1,0.4,2.3,0.4,3.6c0,1.4-0.2,2.6-0.5,3.8c-0.3,1.1-0.7,2.1-1.3,2.9 c-0.6,0.8-1.2,1.4-2,1.9C252.2,69.1,251.3,69.4,250.3,69.4z M255.1,60.2c0-1-0.1-2-0.3-2.9c-0.2-0.9-0.5-1.7-0.8-2.3 c-0.4-0.7-0.9-1.2-1.5-1.6c-0.6-0.4-1.3-0.6-2.2-0.6c-0.8,0-1.6,0.2-2.2,0.6c-0.6,0.4-1.1,1-1.5,1.6c-0.4,0.7-0.7,1.5-0.8,2.4 c-0.2,0.9-0.3,1.8-0.3,2.7c0,1.1,0.1,2.1,0.3,3c0.2,0.9,0.5,1.7,0.9,2.3c0.4,0.6,0.9,1.2,1.5,1.5c0.6,0.4,1.3,0.5,2,0.5 c0.8,0,1.6-0.2,2.2-0.6c0.6-0.4,1.1-1,1.5-1.7c0.4-0.7,0.7-1.5,0.8-2.4C255,62,255.1,61.1,255.1,60.2z"></path> <path class="st0" d="M260.7,63.4c0.3,1.5,0.7,2.6,1.4,3.2c0.7,0.6,1.6,0.9,2.8,0.9c0.6,0,1.1-0.1,1.5-0.3c0.4-0.2,0.8-0.4,1.1-0.7 c0.3-0.3,0.5-0.6,0.6-1c0.1-0.4,0.2-0.8,0.2-1.2c0-0.9-0.2-1.5-0.7-1.9c-0.4-0.4-1-0.7-1.7-1c-0.7-0.2-1.4-0.4-2.2-0.6 c-0.8-0.2-1.5-0.4-2.1-0.8c-0.7-0.3-1.2-0.8-1.7-1.4c-0.4-0.6-0.7-1.5-0.7-2.7c0-1.5,0.4-2.6,1.3-3.6c0.9-0.9,2.1-1.4,3.6-1.4 c1.5,0,2.7,0.4,3.7,1.3c0.9,0.8,1.5,2.2,1.7,4.2H268c-0.1-1.3-0.6-2.3-1.2-2.8c-0.7-0.5-1.5-0.8-2.5-0.8c-1,0-1.8,0.3-2.3,0.8 c-0.5,0.5-0.8,1.3-0.8,2.2c0,0.8,0.2,1.4,0.7,1.8c0.4,0.4,1,0.8,1.7,1c0.7,0.3,1.4,0.5,2.2,0.7c0.8,0.2,1.5,0.5,2.1,0.9 c0.7,0.4,1.2,0.9,1.7,1.5c0.4,0.6,0.7,1.5,0.7,2.6c0,0.8-0.1,1.6-0.4,2.2c-0.3,0.6-0.7,1.2-1.2,1.6c-0.5,0.4-1.1,0.7-1.8,1 c-0.7,0.2-1.4,0.3-2.3,0.3c-0.8,0-1.6-0.2-2.2-0.5c-0.6-0.3-1.2-0.7-1.6-1.3c-0.4-0.5-0.8-1.2-1-1.9c-0.3-0.7-0.4-1.5-0.4-2.3 H260.7z"></path> <path class="st0" d="M281,68.9V44.7h6.6c0.5,0,1.1,0,1.6,0.1c0.5,0,1,0.1,1.5,0.2c0.5,0.1,1,0.3,1.5,0.6c0.5,0.2,0.9,0.6,1.4,1 c0.6,0.6,1.2,1.3,1.6,2.1c0.4,0.8,0.7,1.7,1,2.7c0.2,0.9,0.4,1.9,0.5,2.8c0.1,1,0.1,1.8,0.1,2.6c0,0.8,0,1.6-0.1,2.5 c-0.1,0.8-0.2,1.6-0.4,2.4c-0.2,0.8-0.4,1.6-0.7,2.3c-0.3,0.7-0.7,1.4-1.1,2c-0.4,0.6-0.9,1.1-1.5,1.5c-0.5,0.4-1.1,0.7-1.7,0.9 c-0.6,0.2-1.2,0.4-1.8,0.4c-0.6,0.1-1.3,0.1-1.9,0.1H281z M282.8,66.9h4.4c0.8,0,1.6-0.1,2.3-0.2s1.5-0.4,2.2-0.9 c0.6-0.4,1.2-1,1.6-1.6c0.4-0.7,0.7-1.4,1-2.3c0.2-0.8,0.4-1.7,0.5-2.6c0.1-0.9,0.1-1.8,0.1-2.6c0-0.9,0-1.8-0.1-2.7 c-0.1-0.9-0.3-1.8-0.5-2.6c-0.3-0.8-0.6-1.6-1-2.3c-0.4-0.7-1-1.2-1.7-1.7c-0.6-0.4-1.3-0.6-2-0.7c-0.8-0.1-1.6-0.2-2.4-0.2h-4.4 V66.9z"></path> <path class="st0" d="M300.3,47.7v-3h1.8v3H300.3z M300.4,68.9V51.5h1.6v17.4H300.4z"></path> <path class="st0" d="M316.9,44.7h1.6v24.2h-1.6v-3.1h-0.1c-0.2,0.6-0.5,1.1-0.9,1.5c-0.4,0.4-0.8,0.8-1.2,1.1 c-0.4,0.3-0.9,0.5-1.4,0.7c-0.5,0.2-0.9,0.2-1.4,0.2c-1.1,0-2.1-0.2-2.9-0.7c-0.8-0.5-1.4-1.1-1.9-1.9c-0.5-0.8-0.9-1.8-1.1-2.9 c-0.2-1.1-0.3-2.3-0.3-3.6c0-1.2,0.1-2.4,0.4-3.5c0.3-1.1,0.6-2.1,1.1-2.9c0.5-0.8,1.2-1.5,1.9-2c0.8-0.5,1.7-0.8,2.8-0.8 c1,0,1.9,0.3,2.8,0.8c0.9,0.5,1.6,1.4,2.1,2.4V44.7z M316.9,60.1c0-1-0.1-1.9-0.3-2.8c-0.2-0.9-0.5-1.7-0.9-2.3 c-0.4-0.7-0.9-1.2-1.5-1.6c-0.6-0.4-1.2-0.6-2-0.6c-0.8,0-1.6,0.2-2.2,0.6c-0.6,0.4-1.1,1-1.5,1.7c-0.4,0.7-0.7,1.6-0.9,2.5 c-0.2,1-0.3,2-0.2,3.1c0,1.1,0.1,2.1,0.4,2.9c0.2,0.8,0.6,1.6,1,2.1c0.4,0.6,0.9,1,1.5,1.3c0.6,0.3,1.2,0.5,1.9,0.5 c0.8,0,1.4-0.2,2-0.6c0.6-0.4,1.1-0.9,1.5-1.6c0.4-0.7,0.7-1.4,0.9-2.4C316.8,62.2,316.9,61.2,316.9,60.1z"></path> <path class="st0" d="M329,58.7c0.3,0,0.7-0.1,1.1-0.2c0.4-0.1,0.8-0.2,1-0.4c0.3-0.2,0.4-0.4,0.5-0.8c0.1-0.4,0.1-0.7,0.1-1 c0-1-0.3-1.9-0.8-2.5c-0.5-0.7-1.4-1-2.7-1c-0.6,0-1.1,0.1-1.5,0.2c-0.5,0.1-0.9,0.3-1.2,0.6c-0.3,0.3-0.6,0.7-0.9,1.2 c-0.2,0.5-0.4,1.1-0.4,1.9h-1.6c0.1-1,0.2-1.9,0.6-2.6c0.3-0.7,0.7-1.3,1.2-1.8c0.5-0.5,1.1-0.8,1.8-1c0.7-0.2,1.4-0.3,2.1-0.3 c0.7,0,1.4,0.1,2,0.3c0.6,0.2,1.2,0.5,1.6,0.9c0.5,0.4,0.8,1,1.1,1.7c0.3,0.7,0.4,1.5,0.4,2.6v9.5c0,0.8,0.1,1.3,0.3,1.5 c0.2,0.2,0.7,0.2,1.4-0.2v1.6c-0.1,0-0.3,0.1-0.6,0.2c-0.2,0.1-0.5,0.1-0.7,0.1c-0.3,0-0.5,0-0.7-0.1c-0.3,0-0.5-0.2-0.6-0.3 s-0.3-0.4-0.4-0.6c-0.1-0.2-0.2-0.5-0.2-0.8c0-0.3-0.1-0.6-0.1-0.9c-0.7,0.9-1.5,1.7-2.3,2.1c-0.9,0.5-1.8,0.7-2.8,0.7 c-0.6,0-1.2-0.1-1.8-0.3c-0.6-0.2-1.1-0.5-1.5-0.9c-0.4-0.4-0.8-0.9-1-1.6c-0.3-0.6-0.4-1.3-0.4-2.2c0-3,1.6-4.7,4.9-5.2L329,58.7 z M331.7,59.7c-0.7,0.4-1.4,0.6-2.1,0.7c-0.7,0.1-1.4,0.2-2.1,0.3c-1.2,0.1-2.2,0.5-2.9,1c-0.7,0.6-1,1.5-1,2.7 c0,0.5,0.1,1,0.3,1.4c0.2,0.4,0.4,0.7,0.7,1c0.3,0.3,0.6,0.4,1,0.6c0.4,0.1,0.7,0.2,1.1,0.2c0.6,0,1.3-0.1,1.9-0.3 c0.6-0.2,1.2-0.5,1.6-0.9c0.5-0.4,0.9-0.9,1.1-1.6c0.3-0.6,0.4-1.4,0.4-2.3V59.7z M326.6,49.6l3-4.7h2.1l-3.7,4.7H326.6z"></path> <path class="st0" d="M347.4,57c-0.3-1.3-0.8-2.3-1.5-3c-0.7-0.7-1.6-1.1-2.7-1.1c-0.8,0-1.5,0.2-2.1,0.6c-0.6,0.4-1.1,1-1.5,1.7 s-0.7,1.5-0.8,2.4c-0.2,0.9-0.3,1.8-0.3,2.7c0,0.9,0.1,1.8,0.3,2.7c0.2,0.9,0.4,1.7,0.8,2.4c0.4,0.7,0.9,1.2,1.5,1.7 c0.6,0.4,1.3,0.6,2.2,0.6c1.2,0,2.2-0.4,2.9-1.2c0.7-0.8,1.2-2,1.4-3.4h1.7c-0.1,1-0.4,1.8-0.7,2.6c-0.3,0.8-0.7,1.5-1.2,2 c-0.5,0.6-1.1,1-1.8,1.3c-0.7,0.3-1.5,0.5-2.3,0.5c-1.1,0-2.1-0.2-2.9-0.7c-0.8-0.5-1.5-1.1-2-1.9c-0.5-0.8-0.9-1.8-1.2-2.9 c-0.3-1.1-0.4-2.3-0.4-3.6c0-1.2,0.1-2.4,0.4-3.5c0.3-1.1,0.7-2.1,1.2-2.9c0.5-0.9,1.2-1.5,2-2c0.8-0.5,1.7-0.8,2.8-0.8 c1.6,0,2.9,0.5,3.9,1.4c1,1,1.6,2.5,1.9,4.5H347.4z"></path> <path class="st0" d="M357.4,69c-0.2,0-0.5,0.1-0.8,0.2c-0.3,0.1-0.7,0.2-1.1,0.2c-0.8,0-1.4-0.3-1.8-0.8c-0.4-0.5-0.6-1.4-0.6-2.7 V53.2h-2v-1.7h2v-4.8h1.6v4.8h2.6v1.7h-2.6v11.9c0,0.4,0,0.8,0,1.1c0,0.3,0.1,0.6,0.2,0.8c0.1,0.2,0.2,0.3,0.4,0.4 c0.2,0.1,0.5,0.1,0.8,0.1c0.2,0,0.4,0,0.7-0.1c0.2,0,0.4-0.1,0.7-0.2V69z"></path> <path class="st0" d="M360.2,47.7v-3h1.8v3H360.2z M360.3,68.9V51.5h1.6v17.4H360.3z"></path> <path class="st0" d="M375.9,57c-0.3-1.3-0.8-2.3-1.5-3c-0.7-0.7-1.6-1.1-2.7-1.1c-0.8,0-1.5,0.2-2.1,0.6c-0.6,0.4-1.1,1-1.5,1.7 s-0.7,1.5-0.8,2.4c-0.2,0.9-0.3,1.8-0.3,2.7c0,0.9,0.1,1.8,0.3,2.7c0.2,0.9,0.4,1.7,0.8,2.4c0.4,0.7,0.9,1.2,1.5,1.7 c0.6,0.4,1.3,0.6,2.2,0.6c1.2,0,2.2-0.4,2.9-1.2c0.7-0.8,1.2-2,1.4-3.4h1.7c-0.1,1-0.4,1.8-0.7,2.6c-0.3,0.8-0.7,1.5-1.2,2 c-0.5,0.6-1.1,1-1.8,1.3c-0.7,0.3-1.5,0.5-2.3,0.5c-1.1,0-2.1-0.2-2.9-0.7c-0.8-0.5-1.5-1.1-2-1.9c-0.5-0.8-0.9-1.8-1.2-2.9 c-0.3-1.1-0.4-2.3-0.4-3.6c0-1.2,0.1-2.4,0.4-3.5c0.3-1.1,0.7-2.1,1.2-2.9c0.5-0.9,1.2-1.5,2-2c0.8-0.5,1.7-0.8,2.8-0.8 c1.6,0,2.9,0.5,3.9,1.4c1,1,1.6,2.5,1.9,4.5H375.9z"></path> <path class="st0" d="M386.5,69.4c-0.9,0-1.7-0.2-2.5-0.6c-0.8-0.4-1.5-1-2-1.7c-0.6-0.8-1-1.7-1.4-2.9c-0.3-1.1-0.5-2.5-0.5-4 c0-1.3,0.1-2.5,0.4-3.6c0.3-1.1,0.7-2.1,1.2-2.9c0.5-0.8,1.2-1.5,2-2c0.8-0.5,1.7-0.7,2.8-0.7c1.1,0,2,0.2,2.8,0.7 c0.8,0.5,1.5,1.1,2,1.9c0.5,0.8,0.9,1.8,1.2,2.9c0.3,1.1,0.4,2.3,0.4,3.6c0,1.4-0.2,2.6-0.5,3.8c-0.3,1.1-0.7,2.1-1.3,2.9 c-0.6,0.8-1.2,1.4-2,1.9C388.4,69.1,387.5,69.4,386.5,69.4z M391.3,60.2c0-1-0.1-2-0.3-2.9c-0.2-0.9-0.5-1.7-0.8-2.3 c-0.4-0.7-0.9-1.2-1.5-1.6c-0.6-0.4-1.3-0.6-2.2-0.6c-0.8,0-1.6,0.2-2.2,0.6c-0.6,0.4-1.1,1-1.5,1.6c-0.4,0.7-0.7,1.5-0.8,2.4 c-0.2,0.9-0.3,1.8-0.3,2.7c0,1.1,0.1,2.1,0.3,3c0.2,0.9,0.5,1.7,0.9,2.3c0.4,0.6,0.9,1.2,1.5,1.5c0.6,0.4,1.3,0.5,2,0.5 c0.8,0,1.6-0.2,2.2-0.6c0.6-0.4,1.1-1,1.5-1.7c0.4-0.7,0.7-1.5,0.8-2.4C391.2,62,391.3,61.1,391.3,60.2z"></path> <path class="st0" d="M396.9,63.4c0.3,1.5,0.7,2.6,1.4,3.2c0.7,0.6,1.6,0.9,2.8,0.9c0.6,0,1.1-0.1,1.5-0.3c0.4-0.2,0.8-0.4,1.1-0.7 c0.3-0.3,0.5-0.6,0.6-1c0.1-0.4,0.2-0.8,0.2-1.2c0-0.9-0.2-1.5-0.7-1.9c-0.4-0.4-1-0.7-1.7-1c-0.7-0.2-1.4-0.4-2.2-0.6 c-0.8-0.2-1.5-0.4-2.1-0.8c-0.7-0.3-1.2-0.8-1.7-1.4c-0.4-0.6-0.7-1.5-0.7-2.7c0-1.5,0.4-2.6,1.3-3.6c0.9-0.9,2.1-1.4,3.6-1.4 c1.5,0,2.7,0.4,3.7,1.3c0.9,0.8,1.5,2.2,1.7,4.2h-1.6c-0.1-1.3-0.6-2.3-1.2-2.8c-0.7-0.5-1.5-0.8-2.5-0.8c-1,0-1.8,0.3-2.3,0.8 c-0.5,0.5-0.8,1.3-0.8,2.2c0,0.8,0.2,1.4,0.7,1.8c0.4,0.4,1,0.8,1.7,1c0.7,0.3,1.4,0.5,2.2,0.7c0.8,0.2,1.5,0.5,2.1,0.9 c0.7,0.4,1.2,0.9,1.7,1.5c0.4,0.6,0.7,1.5,0.7,2.6c0,0.8-0.1,1.6-0.4,2.2c-0.3,0.6-0.7,1.2-1.2,1.6c-0.5,0.4-1.1,0.7-1.8,1 c-0.7,0.2-1.4,0.3-2.3,0.3c-0.8,0-1.6-0.2-2.2-0.5c-0.6-0.3-1.2-0.7-1.6-1.3c-0.4-0.5-0.8-1.2-1-1.9c-0.3-0.7-0.4-1.5-0.4-2.3 H396.9z"></path> <path class="st0" d="M159.3,84.1h3.5v12.7c0,1.4,0.1,2.5,0.4,3.1c0.4,1.2,1.3,1.7,2.7,1.7c1.4,0,2.3-0.6,2.7-1.7 c0.3-0.7,0.4-1.7,0.4-3.1V84.1h3.5v12.7c0,2.2-0.3,3.9-0.8,5.1c-1,2.2-3,3.4-5.8,3.4c-2.9,0-4.8-1.1-5.8-3.4 c-0.5-1.2-0.8-2.9-0.8-5.1V84.1z"></path> <path class="st0" d="M185.6,90.3c0.8,0.8,1.2,2.2,1.2,4.1v10.3h-3.3v-9.3c0-0.8-0.1-1.4-0.3-1.9c-0.3-0.8-0.9-1.2-1.8-1.2 c-1.1,0-1.8,0.6-2.2,1.7c-0.2,0.6-0.3,1.4-0.3,2.3v8.3h-3.2V89.5h3.1v2.2c0.4-0.8,0.8-1.4,1.2-1.7c0.7-0.6,1.5-0.9,2.5-0.9 C183.8,89.1,184.8,89.5,185.6,90.3z"></path> <path class="st0" d="M193.1,87.6h-3.3v-3.7h3.3V87.6z M189.9,89.5h3.3v15.3h-3.3V89.5z"></path> <path class="st0" d="M203.8,89.5h3.4l-4.4,15.3h-3.4L195,89.5h3.6l2.6,11.3L203.8,89.5z"></path> <path class="st0" d="M217.1,89.8c0.9,0.5,1.6,1.2,2.1,2.3c0.5,0.9,0.8,2,1,3.2c0.1,0.7,0.1,1.7,0.1,3h-8.9c0,1.5,0.5,2.6,1.3,3.2 c0.5,0.4,1.1,0.6,1.8,0.6c0.7,0,1.3-0.2,1.8-0.7c0.2-0.3,0.5-0.6,0.7-1.1h3.3c-0.1,0.9-0.5,1.8-1.2,2.8c-1.1,1.5-2.6,2.2-4.6,2.2 c-1.6,0-3.1-0.6-4.3-1.9c-1.2-1.3-1.9-3.3-1.9-6.1c0-2.7,0.6-4.7,1.7-6.1c1.1-1.4,2.6-2.1,4.4-2.1C215.2,89,216.2,89.3,217.1,89.8 z M212.3,93.2c-0.5,0.6-0.7,1.4-0.9,2.4h5.5c-0.1-1.1-0.3-1.9-0.9-2.4c-0.5-0.6-1.1-0.8-1.9-0.8C213.4,92.4,212.7,92.6,212.3,93.2 z"></path> <path class="st0" d="M228.7,89.1c0,0,0.1,0,0.3,0v4.1c-0.2,0-0.4,0-0.5-0.1c-0.2,0-0.3,0-0.4,0c-1.3,0-2.2,0.5-2.6,1.6 c-0.2,0.6-0.4,1.5-0.4,2.7v7.3h-3.2V89.5h3.1v2.7c0.5-1,0.9-1.7,1.3-2.1c0.6-0.6,1.4-0.9,2.3-0.9 C228.6,89.1,228.7,89.1,228.7,89.1z"></path> <path class="st0" d="M233.4,99.9c0.1,0.7,0.2,1.2,0.4,1.5c0.4,0.5,1.1,0.8,2.2,0.8c0.6,0,1.1-0.1,1.5-0.4c0.4-0.2,0.6-0.6,0.6-1.1 c0-0.4-0.2-0.8-0.5-1c-0.3-0.2-1.4-0.6-3.4-1.2c-1.4-0.4-2.4-1-2.9-1.6c-0.6-0.6-0.9-1.6-0.9-2.8c0-1.4,0.4-2.6,1.3-3.6 c0.9-1,2.1-1.5,3.8-1.5c1.5,0,2.8,0.4,3.7,1.1c1,0.8,1.5,2.1,1.7,4h-3.2c0-0.5-0.2-0.9-0.3-1.2c-0.4-0.5-1-0.8-1.8-0.8 c-0.7,0-1.2,0.1-1.5,0.4c-0.3,0.3-0.4,0.6-0.4,1c0,0.5,0.2,0.8,0.5,1c0.3,0.2,1.4,0.6,3.3,1.1c1.3,0.4,2.2,0.9,2.9,1.7 c0.6,0.8,0.9,1.7,0.9,2.9c0,1.5-0.5,2.8-1.4,3.7c-0.9,1-2.3,1.4-4.2,1.4c-1.9,0-3.4-0.5-4.3-1.5c-0.9-1-1.4-2.3-1.4-3.9H233.4z"></path> <path class="st0" d="M247,87.6h-3.3v-3.7h3.3V87.6z M243.8,89.5h3.3v15.3h-3.3V89.5z"></path> <path class="st0" d="M256.7,89.7c0.6,0.4,1,1,1.4,1.7v-7.3h3.3v20.7h-3.1v-2.1c-0.5,0.9-1,1.6-1.6,2c-0.6,0.4-1.3,0.6-2.2,0.6 c-1.4,0-2.6-0.7-3.6-2.2c-1-1.4-1.5-3.3-1.5-5.6c0-2.6,0.5-4.7,1.4-6.2c1-1.5,2.3-2.2,3.9-2.2C255.4,89.1,256.1,89.3,256.7,89.7z M257.4,100.6c0.5-0.8,0.7-1.9,0.7-3.3c0-1.9-0.4-3.2-1.1-4c-0.5-0.5-1-0.7-1.6-0.7c-0.9,0-1.6,0.4-2.1,1.3 c-0.4,0.9-0.7,2-0.7,3.3c0,1.4,0.2,2.5,0.7,3.4c0.4,0.8,1.1,1.3,2,1.3C256.3,101.9,257,101.5,257.4,100.6z"></path> <path class="st0" d="M269.1,95.5c0.6-0.1,1-0.2,1.3-0.4c0.5-0.2,0.7-0.6,0.7-1.1c0-0.6-0.2-1.1-0.5-1.3c-0.4-0.2-0.9-0.4-1.6-0.4 c-0.8,0-1.3,0.2-1.6,0.7c-0.2,0.3-0.4,0.8-0.5,1.4h-3.1c0.1-1.3,0.4-2.4,0.9-3.3c0.9-1.3,2.3-2,4.4-2c1.3,0,2.5,0.3,3.6,1 c1,0.7,1.6,1.9,1.6,3.8v7c0,0.5,0,1.1,0,1.8c0,0.5,0.1,0.9,0.2,1.1c0.1,0.2,0.3,0.3,0.5,0.5v0.6h-3.5c-0.1-0.3-0.2-0.6-0.2-0.9 c0-0.3-0.1-0.6-0.1-0.9c-0.4,0.6-1,1.1-1.5,1.5c-0.7,0.5-1.5,0.7-2.4,0.7c-1.1,0-2-0.4-2.8-1.2c-0.7-0.8-1.1-1.9-1.1-3.4 c0-1.9,0.6-3.2,1.8-4.1c0.6-0.5,1.6-0.8,2.8-1L269.1,95.5z M271.1,97.3c-0.2,0.2-0.4,0.3-0.6,0.4c-0.2,0.1-0.5,0.2-0.9,0.3 l-0.7,0.2c-0.7,0.2-1.2,0.3-1.5,0.5c-0.5,0.4-0.8,0.9-0.8,1.7c0,0.7,0.2,1.2,0.5,1.5c0.3,0.3,0.7,0.5,1.1,0.5 c0.7,0,1.3-0.3,1.9-0.8c0.6-0.5,0.9-1.4,0.9-2.8V97.3z"></path> <path class="st0" d="M283.6,89.7c0.6,0.4,1,1,1.4,1.7v-7.3h3.3v20.7h-3.1v-2.1c-0.5,0.9-1,1.6-1.6,2c-0.6,0.4-1.3,0.6-2.2,0.6 c-1.4,0-2.6-0.7-3.6-2.2c-1-1.4-1.5-3.3-1.5-5.6c0-2.6,0.5-4.7,1.4-6.2c1-1.5,2.3-2.2,3.9-2.2C282.3,89.1,283,89.3,283.6,89.7z M284.4,100.6c0.5-0.8,0.7-1.9,0.7-3.3c0-1.9-0.4-3.2-1.1-4c-0.5-0.5-1-0.7-1.6-0.7c-0.9,0-1.6,0.4-2.1,1.3 c-0.4,0.9-0.7,2-0.7,3.3c0,1.4,0.2,2.5,0.7,3.4c0.4,0.8,1.1,1.3,2,1.3C283.2,101.9,283.9,101.5,284.4,100.6z"></path> <path class="st0" d="M304.1,89.7c0.6,0.4,1,1,1.4,1.7v-7.3h3.3v20.7h-3.1v-2.1c-0.5,0.9-1,1.6-1.6,2c-0.6,0.4-1.3,0.6-2.2,0.6 c-1.4,0-2.6-0.7-3.6-2.2c-1-1.4-1.5-3.3-1.5-5.6c0-2.6,0.5-4.7,1.4-6.2c1-1.5,2.3-2.2,3.9-2.2C302.9,89.1,303.5,89.3,304.1,89.7z M304.9,100.6c0.5-0.8,0.7-1.9,0.7-3.3c0-1.9-0.4-3.2-1.1-4c-0.5-0.5-1-0.7-1.6-0.7c-0.9,0-1.6,0.4-2.1,1.3 c-0.4,0.9-0.7,2-0.7,3.3c0,1.4,0.2,2.5,0.7,3.4c0.4,0.8,1.1,1.3,2,1.3C303.7,101.9,304.4,101.5,304.9,100.6z"></path> <path class="st0" d="M319.7,89.8c0.9,0.5,1.6,1.2,2.1,2.3c0.5,0.9,0.8,2,1,3.2c0.1,0.7,0.1,1.7,0.1,3H314c0,1.5,0.5,2.6,1.3,3.2 c0.5,0.4,1.1,0.6,1.8,0.6c0.7,0,1.3-0.2,1.8-0.7c0.2-0.3,0.5-0.6,0.7-1.1h3.3c-0.1,0.9-0.5,1.8-1.2,2.8c-1.1,1.5-2.6,2.2-4.6,2.2 c-1.6,0-3.1-0.6-4.3-1.9s-1.9-3.3-1.9-6.1c0-2.7,0.6-4.7,1.7-6.1c1.1-1.4,2.6-2.1,4.4-2.1C317.9,89,318.8,89.3,319.7,89.8z M314.9,93.2c-0.5,0.6-0.7,1.4-0.9,2.4h5.5c-0.1-1.1-0.3-1.9-0.9-2.4c-0.5-0.6-1.1-0.8-1.9-0.8C316,92.4,315.3,92.6,314.9,93.2z"></path> <path class="st0" d="M332.8,86.2c1.3-1.7,3-2.6,5.1-2.6c2.8,0,4.8,1.1,6.1,3.4c0.7,1.3,1.1,2.6,1.1,3.9h-3.5 c-0.2-1-0.5-1.7-0.8-2.2c-0.6-0.9-1.5-1.3-2.7-1.3c-1.2,0-2.2,0.6-2.9,1.9c-0.7,1.3-1.1,3.1-1.1,5.4c0,2.3,0.4,4.1,1.1,5.2 c0.8,1.2,1.7,1.7,2.9,1.7c1.2,0,2.1-0.5,2.7-1.5c0.3-0.5,0.6-1.3,0.9-2.4h3.4c-0.3,2.3-1.1,4.1-2.3,5.5c-1.2,1.4-2.8,2.1-4.7,2.1 c-2.4,0-4.2-1-5.6-2.9c-1.4-1.9-2-4.6-2-7.9C330.5,91,331.3,88.2,332.8,86.2z"></path> <path class="st0" d="M357.8,102.9c-1,1.6-2.6,2.4-4.7,2.4s-3.7-0.8-4.7-2.4s-1.6-3.5-1.6-5.8c0-2.2,0.5-4.1,1.6-5.7 c1-1.6,2.6-2.4,4.7-2.4s3.7,0.8,4.7,2.4c1,1.6,1.6,3.5,1.6,5.7C359.4,99.4,358.9,101.3,357.8,102.9z M355.3,100.7 c0.5-0.8,0.8-2,0.8-3.6s-0.3-2.7-0.8-3.5c-0.5-0.8-1.2-1.2-2.2-1.2c-0.9,0-1.7,0.4-2.2,1.2c-0.5,0.8-0.8,2-0.8,3.5 s0.3,2.7,0.8,3.6c0.5,0.8,1.2,1.2,2.2,1.2C354,101.9,354.8,101.5,355.3,100.7z"></path> <path class="st0" d="M371.6,90.3c0.8,0.8,1.2,2.2,1.2,4.1v10.3h-3.3v-9.3c0-0.8-0.1-1.4-0.3-1.9c-0.3-0.8-0.9-1.2-1.8-1.2 c-1.1,0-1.8,0.6-2.2,1.7c-0.2,0.6-0.3,1.4-0.3,2.3v8.3h-3.2V89.5h3.1v2.2c0.4-0.8,0.8-1.4,1.2-1.7c0.7-0.6,1.5-0.9,2.5-0.9 C369.8,89.1,370.8,89.5,371.6,90.3z"></path> <path class="st0" d="M383.1,95c-0.1-0.6-0.2-1.1-0.5-1.5c-0.4-0.6-0.9-0.9-1.7-0.9c-1.1,0-1.8,0.7-2.2,2c-0.2,0.7-0.3,1.7-0.3,2.8 c0,1.1,0.1,2,0.3,2.7c0.4,1.3,1.1,1.9,2.2,1.9c0.8,0,1.3-0.3,1.6-0.8c0.3-0.5,0.5-1.2,0.6-2h3.3c-0.1,1.2-0.4,2.4-1.1,3.5 c-1,1.8-2.5,2.6-4.5,2.6c-2,0-3.4-0.7-4.4-2.2c-0.9-1.5-1.4-3.4-1.4-5.7c0-2.6,0.5-4.7,1.5-6.1c1-1.5,2.4-2.2,4.3-2.2 c1.5,0,2.8,0.4,3.8,1.3c1,0.9,1.6,2.4,1.7,4.6H383.1z"></path> <path class="st0" d="M396.6,89.8c0.9,0.5,1.6,1.2,2.1,2.3c0.5,0.9,0.8,2,1,3.2c0.1,0.7,0.1,1.7,0.1,3h-8.9c0,1.5,0.5,2.6,1.3,3.2 c0.5,0.4,1.1,0.6,1.8,0.6c0.7,0,1.3-0.2,1.8-0.7c0.2-0.3,0.5-0.6,0.7-1.1h3.3c-0.1,0.9-0.5,1.8-1.2,2.8c-1.1,1.5-2.6,2.2-4.6,2.2 c-1.6,0-3.1-0.6-4.3-1.9c-1.2-1.3-1.9-3.3-1.9-6.1c0-2.7,0.6-4.7,1.7-6.1c1.1-1.4,2.6-2.1,4.4-2.1C394.8,89,395.8,89.3,396.6,89.8 z M391.8,93.2c-0.5,0.6-0.7,1.4-0.9,2.4h5.5c-0.1-1.1-0.3-1.9-0.9-2.4c-0.5-0.6-1.1-0.8-1.9-0.8C392.9,92.4,392.3,92.6,391.8,93.2 z"></path> <path class="st0" d="M411.8,91.1c1,1.3,1.5,3.3,1.5,5.8c0,2.7-0.5,4.8-1.5,6.2c-1,1.4-2.2,2.1-3.8,2.1c-1,0-1.8-0.3-2.4-0.9 c-0.4-0.3-0.7-0.8-1-1.5v8h-3.2V89.5h3.1v2.3c0.3-0.7,0.7-1.2,1.1-1.6c0.7-0.7,1.6-1,2.6-1C409.6,89.1,410.8,89.8,411.8,91.1z M409.3,94c-0.4-0.9-1.1-1.4-2.1-1.4c-1.2,0-2,0.7-2.4,2.1c-0.2,0.7-0.3,1.7-0.3,2.8c0,1.8,0.4,3,1.1,3.8c0.5,0.4,1,0.6,1.6,0.6 c0.9,0,1.6-0.4,2.1-1.3c0.5-0.9,0.7-2,0.7-3.4C410,95.9,409.7,94.9,409.3,94z"></path> <path class="st0" d="M422.9,95c-0.1-0.6-0.2-1.1-0.5-1.5c-0.4-0.6-0.9-0.9-1.7-0.9c-1.1,0-1.8,0.7-2.2,2c-0.2,0.7-0.3,1.7-0.3,2.8 c0,1.1,0.1,2,0.3,2.7c0.4,1.3,1.1,1.9,2.2,1.9c0.8,0,1.3-0.3,1.6-0.8c0.3-0.5,0.5-1.2,0.6-2h3.3c-0.1,1.2-0.4,2.4-1.1,3.5 c-1,1.8-2.5,2.6-4.5,2.6c-2,0-3.4-0.7-4.4-2.2c-0.9-1.5-1.4-3.4-1.4-5.7c0-2.6,0.5-4.7,1.5-6.1c1-1.5,2.4-2.2,4.3-2.2 c1.5,0,2.8,0.4,3.8,1.3c1,0.9,1.6,2.4,1.7,4.6H422.9z"></path> <path class="st0" d="M431.7,87.6h-3.3v-3.7h3.3V87.6z M428.4,89.5h3.3v15.3h-3.3V89.5z"></path> <path class="st0" d="M445,102.9c-1,1.6-2.6,2.4-4.7,2.4s-3.7-0.8-4.7-2.4c-1-1.6-1.6-3.5-1.6-5.8c0-2.2,0.5-4.1,1.6-5.7 c1-1.6,2.6-2.4,4.7-2.4s3.7,0.8,4.7,2.4c1,1.6,1.6,3.5,1.6,5.7C446.6,99.4,446.1,101.3,445,102.9z M442.5,100.7 c0.5-0.8,0.8-2,0.8-3.6s-0.3-2.7-0.8-3.5c-0.5-0.8-1.2-1.2-2.2-1.2c-0.9,0-1.7,0.4-2.2,1.2c-0.5,0.8-0.8,2-0.8,3.5 s0.3,2.7,0.8,3.6c0.5,0.8,1.2,1.2,2.2,1.2C441.3,101.9,442,101.5,442.5,100.7z M444.2,83.2l-3.4,4.2h-2.3l2.2-4.2H444.2z"></path> <path class="st0" d="M458.8,90.3c0.8,0.8,1.2,2.2,1.2,4.1v10.3h-3.3v-9.3c0-0.8-0.1-1.4-0.3-1.9c-0.3-0.8-0.9-1.2-1.8-1.2 c-1.1,0-1.8,0.6-2.2,1.7c-0.2,0.6-0.3,1.4-0.3,2.3v8.3h-3.2V89.5h3.1v2.2c0.4-0.8,0.8-1.4,1.2-1.7c0.7-0.6,1.5-0.9,2.5-0.9 C457,89.1,458,89.5,458.8,90.3z"></path> </g> </g> </svg> 