<?xml version="1.0" encoding="UTF-8"?> <svg xmlns="http://www.w3.org/2000/svg" xmlns:xlink="http://www.w3.org/1999/xlink" version="1.1" id="Capa_1" x="0px" y="0px" viewBox="0 0 474 100" style="enable-background:new 0 0 474 100;" xml:space="preserve"> <style type="text/css"> .st0{fill:#FFFFFF;} </style> <g> <g> <path class="st0" d="M105.9,22.6h-3.9v14.8c0,1.4-0.3,2.4-0.9,3.2c-0.6,0.8-1.5,1.1-2.9,1.1c-0.9,0-1.7-0.4-2.3-1.1 c-0.6-0.7-1-1.9-1-3.5V22.6H91v14.9c0,1.1,0.2,2.1,0.4,3.1c0.2,0.9,0.6,1.7,1.1,2.4c0.4,0.6,0.9,1.1,1.4,1.4 c0.5,0.4,1.1,0.6,1.6,0.8c0.5,0.2,1,0.3,1.5,0.4c0.5,0.1,0.9,0.1,1.3,0.1c2.3,0,4.2-0.7,5.5-2c1.4-1.3,2.1-3.5,2.1-6.5V22.6z"></path> <path class="st0" d="M116,28c-0.9,0-1.6,0.2-2.1,0.6c-0.6,0.4-1,0.8-1.3,1.2c-0.1,0.2-0.3,0.4-0.4,0.6c-0.1,0.2-0.2,0.4-0.3,0.5 h-0.1v-2.4h-3.4V45h3.6v-9.5c0-1.3,0.3-2.2,0.8-2.9c0.5-0.6,1.2-1,2-1c0.8,0,1.4,0.2,1.7,0.7c0.3,0.4,0.5,0.9,0.6,1.4 c0,0.2,0,0.4,0,0.7c0,0.2,0,0.4,0,0.5V45h3.6V33.6c0-1.8-0.5-3.2-1.4-4.2C118.5,28.5,117.4,28,116,28z"></path> <rect x="123.1" y="22.4" class="st0" width="3.6" height="4.1"></rect> <rect x="123.1" y="28.4" class="st0" width="3.6" height="16.7"></rect> <polygon class="st0" points="136.4,45 141.3,28.4 137.5,28.4 134.6,40.7 134.6,40.7 131.8,28.4 127.8,28.4 132.6,45 "></polygon> <path class="st0" d="M147.8,45.5c0.2,0,0.4,0,0.6,0c0.2,0,0.4-0.1,0.6-0.1c1-0.2,1.9-0.7,2.8-1.5c0.9-0.8,1.5-2,1.9-3.7h-3.7v0 c-0.1,0.6-0.4,1-0.8,1.3c-0.4,0.3-0.9,0.5-1.4,0.5c0,0,0,0-0.1,0c0,0,0,0-0.1,0c-0.9,0-1.6-0.2-2-0.7c-0.4-0.5-0.7-1-0.9-1.6 c-0.1-0.3-0.1-0.7-0.2-1c0-0.3-0.1-0.6-0.1-0.8h9.4v-0.8c0-3-0.5-5.1-1.4-6.4c-0.9-1.3-2-2.1-3.1-2.5c-0.3-0.1-0.6-0.2-0.9-0.2 c-0.3,0-0.6-0.1-0.9-0.1c-1.8,0-3.1,0.5-4,1.4c-0.9,0.9-1.5,2-1.9,3.1c-0.2,0.8-0.4,1.5-0.5,2.2c-0.1,0.7-0.1,1.3-0.1,1.7 c0,3.4,0.7,5.8,2,7.1C144.3,44.8,145.9,45.5,147.8,45.5z M145.5,32.5c0.5-0.6,1.1-0.9,1.9-0.9c0.1,0,0.2,0,0.3,0 c0.1,0,0.2,0,0.3,0.1c0.5,0.1,1,0.4,1.4,1c0.4,0.5,0.7,1.3,0.8,2.4h-5.6C144.8,34,145.1,33.1,145.5,32.5z"></path> <path class="st0" d="M159.1,36.4c0-0.1,0-0.2,0-0.3c0-0.1,0-0.2,0-0.3c0.1-0.8,0.3-1.6,0.8-2.3c0.4-0.7,1.3-1,2.5-1 c0.1,0,0.1,0,0.2,0c0.1,0,0.1,0,0.2,0c0.1,0,0.2,0,0.4,0c0.1,0,0.2,0,0.3,0v-4.4c-0.1,0-0.2,0-0.4,0c-0.1,0-0.2,0-0.3,0 c-1.1,0-1.9,0.3-2.4,1c-0.5,0.7-1,1.4-1.3,2.3h-0.1v-2.9h-3.4V45h3.6V36.4z"></path> <path class="st0" d="M172.6,45.1c0.9-0.3,1.8-0.8,2.5-1.6c0.8-0.8,1.1-2.1,1.1-3.7c0-1.5-0.4-2.6-1.3-3.3 c-0.9-0.7-1.9-1.1-2.9-1.4c-0.3-0.1-0.6-0.2-0.9-0.3c-0.3-0.1-0.6-0.1-0.8-0.2c-0.7-0.2-1.3-0.4-1.8-0.6c-0.5-0.2-0.7-0.6-0.7-1.1 c0-0.1,0-0.1,0-0.2c0-0.1,0-0.1,0-0.2c0-0.3,0.2-0.6,0.5-0.9c0.3-0.3,0.8-0.4,1.7-0.4c0.9,0,1.5,0.2,1.8,0.6 c0.3,0.4,0.5,0.9,0.6,1.4c0,0,0,0.1,0,0.1h3.5c-0.1-2-0.7-3.4-1.7-4.1c-1-0.7-2.1-1.2-3.3-1.3c-0.2,0-0.4,0-0.6,0 c-0.2,0-0.4,0-0.6,0c-1.8,0-3,0.4-3.9,1.3c-0.8,0.9-1.3,1.8-1.5,2.9c0,0.2-0.1,0.5-0.1,0.7c0,0.2,0,0.5,0,0.7 c0,1.6,0.4,2.7,1.3,3.3c0.9,0.6,1.9,1.1,2.9,1.4c0.3,0.1,0.5,0.2,0.8,0.2c0.3,0.1,0.5,0.1,0.8,0.2c0.7,0.2,1.4,0.4,1.9,0.6 c0.5,0.2,0.8,0.6,0.8,1.1c0,0.1,0,0.2,0,0.3c0,0.1-0.1,0.2-0.1,0.4c-0.1,0.3-0.3,0.5-0.7,0.7c-0.3,0.2-0.8,0.3-1.5,0.3 c-1.1,0-1.9-0.2-2.3-0.7s-0.6-1.1-0.6-1.8l-3.7,0c0,2.1,0.7,3.5,1.9,4.4c1.2,0.8,2.6,1.3,4.1,1.3c0.1,0,0.2,0,0.3,0 c0.1,0,0.2,0,0.3,0c0.3,0,0.7,0,1.1-0.1C171.8,45.4,172.2,45.3,172.6,45.1z"></path> <path class="st0" d="M175.9,33.5L175.9,33.5C175.8,33.5,175.8,33.5,175.9,33.5L175.9,33.5z"></path> <rect x="178" y="22.4" class="st0" width="3.6" height="4.1"></rect> <rect x="178" y="28.4" class="st0" width="3.6" height="16.7"></rect> <path class="st0" d="M189.1,45.5c0.1,0,0.2,0,0.3,0c0.1,0,0.2,0,0.3,0c0.6-0.1,1.2-0.3,1.8-0.7c0.6-0.4,1.1-1,1.5-1.8h0V45h3.5 V22.6H193v8l-0.1,0c-0.1-0.1-0.1-0.3-0.2-0.4c-0.1-0.1-0.2-0.3-0.3-0.4c-0.3-0.4-0.7-0.8-1.3-1.2c-0.6-0.4-1.3-0.6-2.1-0.6 c-1.5,0-2.8,0.7-4,2.1c-1.1,1.4-1.7,3.6-1.7,6.4c0,2.3,0.5,4.3,1.4,6.2C185.6,44.6,187,45.5,189.1,45.5z M190.1,31.8 c1.2,0,2,0.6,2.4,1.6c0.4,1.1,0.6,2.3,0.6,3.6c0,0,0,0,0,0c0,0,0,0,0,0c0,1.2-0.2,2.3-0.7,3.3c-0.5,1-1.3,1.5-2.5,1.5 c-0.9,0-1.5-0.3-1.9-1c-0.4-0.7-0.7-1.5-0.9-2.3c-0.1-0.3-0.1-0.6-0.1-0.9c0-0.3,0-0.6,0-0.8c0-1.3,0.2-2.5,0.7-3.5 C188.1,32.3,188.9,31.8,190.1,31.8z"></path> <path class="st0" d="M205.5,34.7c0,0-0.1,0-0.1,0c0,0-0.1,0-0.1,0l-3.2,0.6c-1.1,0.2-2.1,0.7-2.8,1.6c-0.8,0.9-1.1,2.1-1.1,3.7 c0,1.7,0.4,2.9,1.3,3.7c0.8,0.8,1.8,1.1,2.8,1.2c0,0,0,0,0,0c0,0,0,0,0,0c1,0,1.8-0.2,2.4-0.5c0.6-0.4,1.1-0.8,1.5-1.2 c0.1-0.1,0.2-0.2,0.3-0.3c0.1-0.1,0.2-0.2,0.3-0.3c0,0.3,0,0.5,0.1,0.7c0,0.2,0,0.3,0.1,0.5c0,0.1,0,0.2,0.1,0.4 c0,0.1,0.1,0.3,0.1,0.4h3.9v-0.6c-0.2-0.1-0.4-0.3-0.5-0.6c-0.2-0.3-0.2-1-0.2-2v-9c0-1.4-0.3-2.4-1-3.1s-1.5-1.1-2.3-1.4 c-0.4-0.1-0.8-0.2-1.1-0.2c-0.4,0-0.7-0.1-1-0.1c-0.1,0-0.1,0-0.2,0c-0.1,0-0.1,0-0.2,0c-1.3,0-2.5,0.4-3.7,1.1 c-1.1,0.7-1.8,2.3-2,4.7l3.4,0c0-0.1,0-0.2,0-0.3c0-0.1,0-0.2,0.1-0.3c0.1-0.4,0.3-0.8,0.6-1.1c0.3-0.3,0.8-0.5,1.5-0.5 c0.1,0,0.3,0,0.4,0c0.1,0,0.3,0,0.4,0c0.4,0.1,0.7,0.2,1,0.5c0.3,0.3,0.5,0.7,0.5,1.4c0,0.4-0.1,0.7-0.3,0.9 C206,34.5,205.8,34.6,205.5,34.7z M206.5,39.1L206.5,39.1c0,1.1-0.3,1.9-1,2.4c-0.7,0.6-1.4,0.9-2.2,0.9c-0.1,0-0.2,0-0.2,0 c-0.1,0-0.2,0-0.3,0c-0.3-0.1-0.6-0.3-0.8-0.6c-0.2-0.3-0.4-0.7-0.4-1.3c0-0.9,0.2-1.5,0.7-1.8c0.5-0.3,1-0.5,1.7-0.7 c0.8-0.1,1.3-0.3,1.7-0.4c0.4-0.1,0.6-0.3,0.8-0.5V39.1z"></path> <path class="st0" d="M217.3,45.5c0.1,0,0.2,0,0.3,0c0.1,0,0.2,0,0.3,0c0.6-0.1,1.2-0.3,1.8-0.7c0.6-0.4,1.1-1,1.5-1.8h0V45h3.5 V22.6h-3.6v8l-0.1,0c-0.1-0.1-0.1-0.3-0.2-0.4c-0.1-0.1-0.2-0.3-0.3-0.4c-0.3-0.4-0.7-0.8-1.3-1.2c-0.6-0.4-1.3-0.6-2.1-0.6 c-1.5,0-2.8,0.7-4,2.1c-1.1,1.4-1.7,3.6-1.7,6.4c0,2.3,0.5,4.3,1.4,6.2S215.3,45.5,217.3,45.5z M218.3,31.8c1.2,0,2,0.6,2.4,1.6 c0.4,1.1,0.6,2.3,0.6,3.6c0,0,0,0,0,0c0,0,0,0,0,0c0,1.2-0.2,2.3-0.7,3.3c-0.5,1-1.3,1.5-2.5,1.5c-0.9,0-1.5-0.3-1.9-1 c-0.4-0.7-0.7-1.5-0.9-2.3c-0.1-0.3-0.1-0.6-0.1-0.9c0-0.3,0-0.6,0-0.8c0-1.3,0.2-2.5,0.7-3.5C216.4,32.3,217.2,31.8,218.3,31.8z"></path> <path class="st0" d="M99.7,61.9L99.7,61.9c-0.1-0.1-0.2-0.2-0.3-0.4c-0.1-0.1-0.2-0.3-0.3-0.4c-0.3-0.4-0.7-0.8-1.3-1.2 c-0.6-0.4-1.3-0.6-2.1-0.6c-1.5,0-2.8,0.7-4,2.1C90.6,62.8,90,65,90,67.9c0,2.3,0.5,4.3,1.4,6.2c0.9,1.8,2.4,2.8,4.4,2.8 c0.1,0,0.2,0,0.3,0c0.1,0,0.2,0,0.3,0c0.6-0.1,1.2-0.3,1.8-0.7c0.6-0.4,1.1-1,1.5-1.8h0v2.1h3.5V53.9h-3.6V61.9z M99.9,68.4 C99.9,68.4,99.9,68.4,99.9,68.4c0,1.3-0.2,2.4-0.7,3.4c-0.5,1-1.3,1.5-2.5,1.5c-0.9,0-1.5-0.3-1.9-1c-0.4-0.7-0.7-1.5-0.9-2.3 c-0.1-0.3-0.1-0.6-0.1-0.9c0-0.3,0-0.6,0-0.8c0-1.3,0.2-2.5,0.7-3.5c0.4-1,1.2-1.6,2.4-1.6c1.2,0,2,0.6,2.4,1.6 C99.7,65.8,99.9,67,99.9,68.4C99.9,68.4,99.9,68.4,99.9,68.4z"></path> <path class="st0" d="M113.2,59.6c-0.3-0.1-0.6-0.2-0.9-0.2c-0.3,0-0.6-0.1-0.9-0.1c-1.8,0-3.1,0.5-4,1.4c-0.9,0.9-1.5,2-1.9,3.1 c-0.3,0.8-0.4,1.5-0.5,2.2c-0.1,0.7-0.1,1.3-0.1,1.7c0,3.4,0.7,5.8,2,7.1c1.3,1.3,2.9,2,4.8,2c0.2,0,0.4,0,0.6,0 c0.2,0,0.4-0.1,0.6-0.1c1-0.2,1.9-0.7,2.8-1.5c0.9-0.8,1.5-2,1.9-3.7h-3.7v0c-0.1,0.6-0.4,1-0.8,1.3c-0.4,0.3-0.9,0.5-1.4,0.5 c0,0,0,0-0.1,0c0,0,0,0-0.1,0c-0.9,0-1.6-0.2-2-0.7c-0.4-0.5-0.7-1-0.9-1.6c-0.1-0.3-0.1-0.7-0.2-1c0-0.3-0.1-0.6-0.1-0.8h9.4 v-0.8c0-3-0.5-5.1-1.4-6.4C115.3,60.7,114.3,59.9,113.2,59.6z M108.5,66.4c0.1-1.1,0.4-1.9,0.8-2.6c0.5-0.6,1.1-0.9,1.9-0.9 c0.1,0,0.2,0,0.3,0c0.1,0,0.2,0,0.3,0.1c0.5,0.1,1,0.4,1.4,1c0.4,0.5,0.7,1.3,0.8,2.4H108.5z"></path> <path class="st0" d="M140.2,58.9c-0.5-1.4-1.3-2.7-2.5-3.9c-1.2-1.2-2.9-1.8-5-1.8c-2.4,0-4.4,1-6,3c-1.6,2-2.5,5-2.5,8.9 c0,3.9,0.8,6.8,2.4,8.8c1.6,2,3.6,3,6.1,3c2.3,0,4.1-0.8,5.4-2.3c1.3-1.5,2.2-3.5,2.6-6l-3.8,0c-0.2,1.4-0.7,2.4-1.4,3.1 c-0.7,0.7-1.6,1.1-2.7,1.1c-1.7,0-2.8-0.8-3.5-2.3c-0.7-1.5-1-3.3-1-5.4c0-2.4,0.3-4.2,1-5.4c0.7-1.1,1.4-1.9,2.2-2.2 c0.3-0.1,0.5-0.2,0.7-0.2c0.2,0,0.5-0.1,0.7-0.1c1.1,0,1.9,0.2,2.4,0.7c0.5,0.5,0.9,1,1.2,1.6c0.1,0.3,0.2,0.5,0.3,0.8 c0.1,0.3,0.1,0.5,0.2,0.7h3.8c0-0.4-0.1-0.7-0.1-1.1C140.4,59.7,140.3,59.3,140.2,58.9z"></path> <path class="st0" d="M140.6,61.3L140.6,61.3L140.6,61.3C140.6,61.2,140.6,61.3,140.6,61.3z"></path> <path class="st0" d="M148.6,59.3c-1.8,0-3.5,0.7-4.9,2.1c-1.4,1.4-2.1,3.6-2.1,6.6c0,3,0.7,5.2,2.1,6.6c1.4,1.4,3,2.1,4.9,2.1 c1.8,0,3.5-0.7,4.9-2.1c1.4-1.4,2.1-3.6,2.1-6.6c0-3-0.7-5.2-2.1-6.6C152.1,60,150.5,59.3,148.6,59.3z M151.9,68.1 c0,0.2,0,0.5,0,0.7c0,0.2,0,0.5-0.1,0.8c-0.1,0.9-0.4,1.7-0.9,2.5c-0.5,0.8-1.2,1.1-2.3,1.1c-1.1,0-1.9-0.4-2.3-1.1 c-0.5-0.8-0.8-1.6-0.9-2.5c0-0.3-0.1-0.5-0.1-0.8c0-0.3,0-0.5,0-0.7c0-0.2,0-0.5,0-0.7c0-0.3,0-0.5,0.1-0.8 c0.1-0.9,0.4-1.7,0.9-2.5c0.5-0.8,1.2-1.1,2.3-1.1c1.1,0,1.9,0.4,2.3,1.1c0.5,0.8,0.8,1.6,0.9,2.5c0,0.2,0.1,0.5,0.1,0.8 C151.9,67.6,151.9,67.8,151.9,68.1L151.9,68.1z"></path> <path class="st0" d="M155.6,68.1L155.6,68.1C155.6,68,155.6,68,155.6,68.1C155.6,68,155.6,68,155.6,68.1z"></path> <path class="st0" d="M164.8,59.3c-0.9,0-1.6,0.2-2.1,0.6c-0.6,0.4-1,0.8-1.3,1.2c-0.1,0.2-0.3,0.4-0.4,0.6 c-0.1,0.2-0.2,0.4-0.3,0.5h-0.1v-2.4h-3.4v16.7h3.6v-9.5c0-1.3,0.3-2.2,0.8-2.9c0.5-0.6,1.2-1,2-1c0.8,0,1.4,0.2,1.7,0.7 c0.3,0.4,0.5,0.9,0.6,1.4c0,0.2,0,0.4,0,0.7c0,0.2,0,0.4,0,0.5v10.1h3.6V64.9c0-1.8-0.5-3.2-1.4-4.2 C167.3,59.8,166.1,59.3,164.8,59.3z"></path> <path class="st0" d="M174.9,66.5c0.1-0.9,0.4-1.7,0.8-2.4c0.4-0.7,1.1-1.1,2-1.1c0,0,0,0,0,0c0,0,0,0,0,0c0,0,0,0,0.1,0 c0.6,0,1,0.2,1.3,0.5c0.3,0.4,0.5,0.8,0.7,1.3c0.1,0.1,0.1,0.3,0.1,0.5c0,0.2,0.1,0.3,0.1,0.4l3.7,0c-0.1-1.8-0.6-3.2-1.3-4.1 c-0.8-0.9-1.6-1.5-2.5-1.9c-0.4-0.1-0.8-0.3-1.1-0.3c-0.4-0.1-0.7-0.1-1.1-0.1c-2.3,0-4,0.9-5,2.6c-1,1.7-1.5,3.9-1.5,6.6 c0,0.4,0,0.8,0,1.2c0,0.4,0.1,0.8,0.1,1.2c0.3,1.5,0.8,2.8,1.7,4.1c0.9,1.2,2.4,1.8,4.4,1.8c1.5,0,2.7-0.4,3.6-1.1 c0.9-0.7,1.5-1.5,1.9-2.4c0.3-0.6,0.4-1.1,0.6-1.6c0.1-0.5,0.2-1,0.2-1.3H180v0c0,0.1,0,0.3-0.1,0.6c-0.1,0.2-0.1,0.5-0.2,0.7 c-0.2,0.4-0.4,0.8-0.8,1.1c-0.3,0.3-0.8,0.5-1.3,0.5c-0.9,0-1.6-0.3-1.9-1c-0.4-0.7-0.6-1.4-0.7-2.2c-0.1-0.4-0.1-0.8-0.1-1.2 c0-0.4,0-0.7,0-1c0-0.2,0-0.4,0-0.6C174.9,66.9,174.9,66.7,174.9,66.5z"></path> <path class="st0" d="M192.7,59.6c-0.3-0.1-0.6-0.2-0.9-0.2c-0.3,0-0.6-0.1-0.9-0.1c-1.8,0-3.1,0.5-4,1.4c-0.9,0.9-1.5,2-1.9,3.1 c-0.3,0.8-0.4,1.5-0.5,2.2c-0.1,0.7-0.1,1.3-0.1,1.7c0,3.4,0.7,5.8,2,7.1c1.3,1.3,2.9,2,4.8,2c0.2,0,0.4,0,0.6,0 c0.2,0,0.4-0.1,0.6-0.1c1-0.2,1.9-0.7,2.8-1.5c0.9-0.8,1.5-2,1.9-3.7h-3.7v0c-0.1,0.6-0.4,1-0.8,1.3c-0.4,0.3-0.9,0.5-1.4,0.5 c0,0,0,0-0.1,0c0,0,0,0-0.1,0c-0.9,0-1.6-0.2-2-0.7c-0.4-0.5-0.7-1-0.9-1.6c-0.1-0.3-0.1-0.7-0.2-1c0-0.3-0.1-0.6-0.1-0.8h9.4 v-0.8c0-3-0.5-5.1-1.4-6.4C194.9,60.7,193.9,59.9,192.7,59.6z M188,66.4c0.1-1.1,0.4-1.9,0.8-2.6c0.5-0.6,1.1-0.9,1.9-0.9 c0.1,0,0.2,0,0.3,0c0.1,0,0.2,0,0.3,0.1c0.5,0.1,1,0.4,1.4,1c0.4,0.5,0.7,1.3,0.8,2.4H188z"></path> <path class="st0" d="M206.4,59.3c-1.1,0-1.9,0.2-2.5,0.7s-1,1-1.4,1.6c-0.1,0.1-0.1,0.2-0.2,0.3c0,0.1-0.1,0.2-0.1,0.2h0v-2.4 h-3.4v23.1h3.6v-8.6l0,0c0.1,0.1,0.1,0.3,0.2,0.5c0.1,0.2,0.2,0.3,0.4,0.5c0.3,0.4,0.7,0.8,1.2,1.1c0.5,0.3,1.2,0.5,2.1,0.5 c2,0,3.5-0.9,4.4-2.8c0.9-1.8,1.3-3.9,1.3-6.2c0-2.9-0.6-5-1.7-6.4C209.2,60,207.9,59.3,206.4,59.3z M208.3,69 c0,0.3-0.1,0.6-0.1,0.9c-0.1,0.8-0.4,1.6-0.9,2.3c-0.4,0.7-1.1,1-1.9,1c-1.1,0-2-0.5-2.4-1.5c-0.5-1-0.7-2.1-0.7-3.3c0,0,0,0,0,0 c0,0,0,0,0,0c0-1.3,0.2-2.5,0.6-3.6c0.4-1.1,1.2-1.6,2.4-1.6c1.1,0,1.9,0.5,2.4,1.6c0.4,1,0.7,2.2,0.7,3.5 C208.4,68.4,208.4,68.7,208.3,69z"></path> <path class="st0" d="M216.7,66.5c0.1-0.9,0.4-1.7,0.8-2.4c0.4-0.7,1.1-1.1,2-1.1c0,0,0,0,0,0c0,0,0,0,0,0c0,0,0,0,0.1,0 c0.6,0,1,0.2,1.3,0.5c0.3,0.4,0.5,0.8,0.7,1.3c0.1,0.1,0.1,0.3,0.1,0.5c0,0.2,0.1,0.3,0.1,0.4l3.7,0c-0.1-1.8-0.6-3.2-1.3-4.1 c-0.8-0.9-1.6-1.5-2.5-1.9c-0.4-0.1-0.8-0.3-1.1-0.3c-0.4-0.1-0.7-0.1-1.1-0.1c-2.3,0-4,0.9-5,2.6c-1,1.7-1.5,3.9-1.5,6.6 c0,0.4,0,0.8,0,1.2c0,0.4,0.1,0.8,0.1,1.2c0.3,1.5,0.8,2.8,1.7,4.1c0.9,1.2,2.4,1.8,4.4,1.8c1.5,0,2.7-0.4,3.6-1.1 c0.9-0.7,1.5-1.5,1.9-2.4c0.3-0.6,0.4-1.1,0.6-1.6c0.1-0.5,0.2-1,0.2-1.3h-3.7v0c0,0.1,0,0.3-0.1,0.6c-0.1,0.2-0.1,0.5-0.2,0.7 c-0.2,0.4-0.4,0.8-0.8,1.1c-0.3,0.3-0.8,0.5-1.3,0.5c-0.9,0-1.6-0.3-1.9-1c-0.4-0.7-0.6-1.4-0.7-2.2c-0.1-0.4-0.1-0.8-0.1-1.2 c0-0.4,0-0.7,0-1c0-0.2,0-0.4,0-0.6C216.7,66.9,216.7,66.7,216.7,66.5z"></path> <rect x="227.1" y="53.7" class="st0" width="3.6" height="4.1"></rect> <rect x="227.1" y="59.7" class="st0" width="3.6" height="16.7"></rect> <polygon class="st0" points="244.2,52.9 240.3,52.9 237.8,57.4 240.4,57.4 "></polygon> <path class="st0" d="M246.3,68.1L246.3,68.1C246.3,68,246.3,68,246.3,68.1C246.3,68,246.3,68,246.3,68.1z"></path> <path class="st0" d="M239.3,59.3c-1.8,0-3.5,0.7-4.9,2.1c-1.4,1.4-2.1,3.6-2.1,6.6c0,3,0.7,5.2,2.1,6.6c1.4,1.4,3,2.1,4.9,2.1 s3.5-0.7,4.9-2.1c1.4-1.4,2.1-3.6,2.1-6.6c0-3-0.7-5.2-2.1-6.6C242.8,60,241.2,59.3,239.3,59.3z M242.6,68.1c0,0.2,0,0.5,0,0.7 c0,0.2,0,0.5-0.1,0.8c-0.1,0.9-0.4,1.7-0.9,2.5c-0.5,0.8-1.2,1.1-2.3,1.1c-1.1,0-1.9-0.4-2.3-1.1c-0.5-0.8-0.8-1.6-0.9-2.5 c0-0.3-0.1-0.5-0.1-0.8c0-0.3,0-0.5,0-0.7c0-0.2,0-0.5,0-0.7c0-0.3,0-0.5,0.1-0.8c0.1-0.9,0.4-1.7,0.9-2.5 c0.5-0.8,1.2-1.1,2.3-1.1c1.1,0,1.9,0.4,2.3,1.1c0.5,0.8,0.8,1.6,0.9,2.5c0,0.2,0.1,0.5,0.1,0.8C242.6,67.6,242.6,67.8,242.6,68.1 L242.6,68.1z"></path> <path class="st0" d="M255.5,59.3c-0.9,0-1.6,0.2-2.1,0.6c-0.6,0.4-1,0.8-1.3,1.2c-0.1,0.2-0.3,0.4-0.4,0.6 c-0.1,0.2-0.2,0.4-0.3,0.5h-0.1v-2.4h-3.4v16.7h3.6v-9.5c0-1.3,0.3-2.2,0.8-2.9c0.5-0.6,1.2-1,2-1c0.8,0,1.4,0.2,1.7,0.7 c0.3,0.4,0.5,0.9,0.6,1.4c0,0.2,0,0.4,0,0.7c0,0.2,0,0.4,0,0.5v10.1h3.6V64.9c0-1.8-0.5-3.2-1.4-4.2 C258,59.8,256.8,59.3,255.5,59.3z"></path> <polygon class="st0" points="48.1,40.5 42.1,40.5 41.5,41.9 48.7,41.9 "></polygon> <polygon class="st0" points="48.6,43.2 41.6,43.2 41,44.6 49.2,44.6 "></polygon> <polygon class="st0" points="47.2,50 48.1,45.9 42.1,45.9 42.9,50 "></polygon> <path class="st0" d="M45.1,55.4c-1.2,0-2.1,1-2,2.2l1.6,14.1c-0.4,0.2-0.6,0.5-0.6,0.9c0,0.5,0.3,0.8,0.7,0.9 c0.1,0,0.2,0.1,0.3,0.1c0,0,0,0,0,0c0,0,0,0,0,0c0.6,0,1-0.5,1-1c0-0.4-0.3-0.8-0.6-0.9l1.6-14.1C47.2,56.4,46.3,55.4,45.1,55.4z"></path> <path class="st0" d="M40.8,53.7c0.3,0,0.6-0.1,0.7-0.3h7.1c0.2,0.2,0.4,0.3,0.7,0.3c0.6,0,1-0.5,1-1c0-0.6-0.5-1-1-1 c-0.3,0-0.6,0.1-0.7,0.3h-7.1c-0.2-0.2-0.4-0.3-0.7-0.3c-0.6,0-1,0.5-1,1C39.8,53.2,40.2,53.7,40.8,53.7z"></path> <path class="st0" d="M41.4,38.5h7.4c2.7-2.6,0-5.1,0.7-6.2c-0.8,0.2-0.9,1.6-1.5,2.2c-1.1-2.2,1.3-4.2-0.7-6.8 c0.1,2.1-1.9,2.8-2.2,5.9c-0.9-1.8,0.4-3.5-0.9-5.4c-0.3,1.7-2.2,2.5-1.9,5.4c-0.9-0.4-0.9-1.5-1.8-1.7 C41.2,33.5,38.8,36.1,41.4,38.5z"></path> <path class="st0" d="M12.5,58.8c0,18,14.6,32.6,32.6,32.6c0,0,0,0,0,0v0c18,0,32.6-14.6,32.6-32.6V24.4V10.2H12.5V58.8z M16.4,66.8c0.1,0,0.3,0,0.4,0c0.3,0,0.6,0.1,0.9,0.2c0.4,0.1,0.8,0.3,1.2,0.5c0.2,0.1,0.4,0.2,0.6,0.3c0.1,0.1,0.3,0.2,0.4,0.2 c0.1,0.1,0.3,0.2,0.4,0.2c0,0.1,0,0.3-0.1,0.4c0,0.1,0,0.2,0,0.3c0,0.1,0,0.2,0,0.4c-0.1,1.2,0,2.4,0.2,3.6 c-0.2,0-0.4,0.1-0.6,0.2C18.1,71.5,16.4,68.7,16.4,66.8z M18.7,66.1c-0.3-0.1-0.7-0.3-1-0.3c-1-2.1-1.6-5-1.1-6.7 c0.7,0.3,1.6,0.9,2.3,1.7c0.2-1.6,0.7-3,1.4-3.9c0.8,0.7,1.5,2.1,1.9,3.6c-0.4,0.6-0.8,1.3-1,1.9c-0.6-0.3-1.2-0.4-1.7-0.5 l-1.3-0.2L18.1,63C18,63.9,18.3,64.9,18.7,66.1z M20.3,68.1C20.3,68.1,20.3,68.1,20.3,68.1C20.3,68.1,20.3,68.1,20.3,68.1 C20.3,68.1,20.3,68.1,20.3,68.1z M20.4,75.1c-0.2-0.2-0.3-0.5-0.4-0.7c0.1,0,0.3-0.1,0.4-0.1c0.1,0,0.3-0.1,0.4-0.1 c0.2,0,0.3-0.1,0.5-0.1c0,0,0.1,0,0.1,0c0.2,0,0.4,0,0.7,0c0.1,0,0.1,0,0.2,0c0.2,0,0.5,0,0.7,0c0,0,0.1,0,0.1,0 c0.2,0,0.4,0,0.6,0.1c0,0,0.1,0,0.1,0c0.2,0,0.3,0,0.5,0.1c0.1,0,0.2,0,0.2,0c0.4,0.1,0.8,0.2,1.2,0.3c0.2,0.1,0.4,0.1,0.6,0.2 c0.2,0.1,0.4,0.1,0.6,0.2c0.4,0.2,0.7,0.3,1,0.5c0.1,0.1,0.2,0.1,0.3,0.2c0,0.2,0,0.4,0,0.7c0,0.3,0,0.7,0,1c0,0.2,0,0.4,0,0.6 c-0.8,0.2-1.6,0.4-2.3,0.8C24,78.2,21.6,76.7,20.4,75.1z M21.4,70c0-0.2,0-0.5,0-0.7c0,0,0-0.1,0-0.1c0-0.1,0-0.1,0-0.2 c0-0.2,0-0.3,0.1-0.4c0,0,0-0.1,0-0.1c0-0.1,0-0.2,0-0.2c0-0.2,0.1-0.3,0.1-0.5c0.1-0.5,0.3-1,0.5-1.4c0.1,0.1,0.2,0.2,0.3,0.3 c0.2,0.1,0.4,0.3,0.5,0.5c0.2,0.2,0.4,0.5,0.7,0.8c0.1,0.2,0.2,0.3,0.4,0.5c0,0,0,0,0,0c0.1,0.2,0.2,0.3,0.3,0.5 c0,0.1,0.1,0.1,0.1,0.2c0.1,0.3,0.3,0.5,0.4,0.8c0.5,1.1,0.8,2.2,0.9,3.2c-0.2-0.1-0.5-0.1-0.7-0.2c-0.2,0-0.4-0.1-0.6-0.1 c0,0-0.1,0-0.1,0c-0.2,0-0.3,0-0.5-0.1c0,0-0.1,0-0.1,0c-0.2,0-0.4,0-0.6-0.1c-0.3,0-0.6,0-0.8,0c-0.2,0-0.4,0-0.6,0 C21.5,71.9,21.4,70.9,21.4,70z M30.9,82.8c-0.4-0.1-0.8-0.2-1.2-0.3c-1.6-0.4-3.2-1.2-4-2.1c0.1-0.1,0.3-0.2,0.5-0.3 c0.3-0.2,0.7-0.3,1.1-0.5c0.4-0.1,0.8-0.3,1.2-0.4c0.2,0,0.4-0.1,0.6-0.1c0,0,0,0,0,0c0.2,0,0.4-0.1,0.6-0.1c0.1,0,0.2,0,0.3,0 c0.5,0,0.9-0.1,1.3-0.1c0.9,0,1.7,0.1,2.4,0.3c0.2,0.1,0.4,0.1,0.6,0.2c0,0.2,0.1,0.4,0.1,0.7c0.1,0.4,0.2,0.8,0.4,1.2 c-0.2,0.1-0.4,0.1-0.6,0.2c-0.3,0.1-0.5,0.2-0.8,0.3c-0.5,0.2-1,0.4-1.4,0.7c-0.2,0.1-0.5,0.3-0.7,0.4 C31.3,82.9,31.1,82.9,30.9,82.8z M29.6,76.1c0-0.3,0-0.6,0.1-0.9c0.1-0.9,0.4-1.8,0.7-2.4c1.3,0.9,2.5,3.1,3.1,5.1 c-0.8-0.2-1.6-0.2-2.1-0.2c-0.3,0-0.5,0-0.8,0c-0.2,0-0.4,0-0.7,0.1c-0.1,0-0.2,0-0.3,0C29.5,77.3,29.6,76.7,29.6,76.1z M55.4,86.1c-1.9,0-3.9-0.5-4.8-1.3c-1.3,0.1-2.8,0.6-4.2,1.3c1.1,0.9,1.6,1.6,1.6,1.6s-0.3,0.2-1.6,1c-0.6-0.6-1.1-1.1-1.7-1.6 c-0.8,0.6-1.6,1.2-2.2,1.8c-0.8-0.3-2.1-0.7-2.1-0.7s0.9-1.2,2.6-2.3c-1.3-0.8-2.1-1-3.1-1.2c-0.8,0.6-2.4,0.9-4.1,0.9 c-1.6,0-3.4-0.3-4.5-1.1c0.1-0.1,0.2-0.2,0.2-0.2c0.2-0.2,0.4-0.3,0.7-0.5c0.1,0,0.1-0.1,0.2-0.1c0.5-0.3,1-0.5,1.6-0.7 c0.5-0.2,1.1-0.3,1.6-0.5c0.3-0.1,0.5-0.1,0.8-0.2c0,0,0,0,0,0c-0.2-0.4-0.3-0.8-0.4-1.1c-0.2-0.5-0.3-1-0.5-1.4 c-0.1-0.4-0.2-0.7-0.2-1c-0.1-0.5-0.1-1,0-1.5c2.3,0.7,4.8,4,4.9,6.3c1.9,0.3,3.1,0.8,4.3,1.5c1.5-0.7,3-1.5,5.1-1.5 c-0.1-2.1,2.9-5.7,5.1-6.5c0.2,0.5,0.2,1.2,0,1.9c0,0.3-0.1,0.5-0.2,0.8c-0.2,0.8-0.5,1.7-0.8,2.5c0,0.1-0.1,0.2-0.1,0.3 c0.1,0,0.2,0.1,0.3,0.1c0.6,0.2,1.2,0.4,1.8,0.7c0.6,0.3,1.2,0.6,1.7,0.9c0.1,0,0.1,0.1,0.2,0.1c0.3,0.2,0.6,0.4,0.8,0.7 c0.1,0.1,0.2,0.2,0.3,0.4C58.1,85.8,56.7,86.1,55.4,86.1z M60,83.6c-0.3,0-0.6,0-0.8,0c-0.1-0.1-0.1-0.1-0.2-0.2 c-0.3-0.2-0.5-0.4-0.8-0.6c-0.4-0.3-0.9-0.5-1.3-0.7c-0.3-0.1-0.6-0.3-0.8-0.4c-0.1-0.1-0.3-0.1-0.4-0.2c0.1-0.3,0.2-0.5,0.2-0.8 c0.1-0.4,0.2-0.7,0.3-1.1c0.1,0,0.3,0,0.4-0.1c0.1,0,0.2,0,0.2,0c0.2,0,0.3,0,0.5,0c0,0,0.1,0,0.1,0c0.2,0,0.5,0,0.7,0 c0.7,0.1,1.5,0.2,2.2,0.4c0.2,0.1,0.4,0.1,0.6,0.2c0.2,0.1,0.4,0.1,0.6,0.2c0.2,0.1,0.4,0.1,0.5,0.2c0.3,0.1,0.6,0.3,0.9,0.5 c0.3,0.2,0.5,0.3,0.7,0.5c0.2,0.2,0.4,0.3,0.5,0.5C63.2,83.1,61.6,83.5,60,83.6z M56.7,78.5c0-0.2,0.1-0.3,0.1-0.5 c0.5-1.9,1.5-3.8,2.7-4.6c0.4,0.5,0.6,1.3,0.8,2.1c0,0.1,0,0.2,0.1,0.4c0,0.2,0.1,0.4,0.1,0.6c0,0.2,0,0.4,0.1,0.6 c0,0.4,0,0.9,0,1.3c0,0.2,0,0.3,0,0.5c-0.8-0.2-1.7-0.4-2.4-0.4c-0.2,0-0.4,0-0.7,0c0,0-0.1,0-0.1,0C57,78.5,56.9,78.5,56.7,78.5z M63.9,80.5c-0.4-0.2-0.7-0.5-1.2-0.7c-0.3-0.2-0.7-0.3-1-0.4c0-0.2,0-0.3,0.1-0.5c0-0.2,0-0.5,0-0.8c0-0.3,0-0.7,0-1 c0.1,0,0.3,0,0.4,0c0.3,0,0.6,0,0.8,0c0.3,0,0.6,0.1,1,0.1c0.8,0.1,1.5,0.3,2.2,0.5c0.3,0.1,0.5,0.2,0.7,0.3 c0.2,0.1,0.4,0.2,0.6,0.4c0,0,0,0,0,0C66.8,79.3,65.4,80,63.9,80.5z M69.4,75.5c-0.1,0.1-0.3,0.3-0.4,0.4 c-0.5,0.4-0.9,0.8-1.5,1.1c-0.1,0-0.1-0.1-0.2-0.1c-0.4-0.2-0.9-0.4-1.3-0.5c-0.2-0.1-0.5-0.1-0.7-0.2c-0.2,0-0.4-0.1-0.5-0.1 c-0.2,0-0.5-0.1-0.7-0.1c0,0,0,0-0.1,0c-0.3,0-0.5-0.1-0.8-0.1c-0.4,0-0.7,0-1.1,0h0c-0.2,0-0.3,0-0.5,0c0.1-0.1,0.2-0.2,0.3-0.3 c0.1-0.1,0.3-0.3,0.5-0.4c0.3-0.2,0.7-0.4,1.2-0.6c0.2-0.1,0.4-0.2,0.6-0.2c0.1,0,0.3-0.1,0.4-0.1c0.1,0,0.2,0,0.2-0.1 c0.1,0,0.2-0.1,0.4-0.1c0.2,0,0.3-0.1,0.5-0.1c0,0,0.1,0,0.1,0c0.2,0,0.4-0.1,0.5-0.1c0.2,0,0.4-0.1,0.6-0.1 c0.4,0,0.9-0.1,1.3-0.1c0.1,0,0.3,0,0.4,0c0.2,0,0.4,0,0.6,0c0.2,0,0.4,0.1,0.5,0.1c0,0,0.1,0,0.1,0c0.2,0.1,0.4,0.1,0.6,0.2 c0,0,0,0,0,0C70.4,74.5,69.9,75,69.4,75.5z M70.9,72.7c-0.2-0.1-0.5-0.2-0.8-0.2c0.1-0.6,0.1-1.3,0-1.9c0-0.2,0-0.4-0.1-0.6 c0-0.2,0-0.4-0.1-0.6c0-0.1,0-0.2-0.1-0.3c0.4-0.2,0.8-0.4,1.3-0.6c0.4-0.1,0.7-0.2,1-0.3c0.3-0.1,0.6-0.1,0.9-0.1 c0.1,0,0.1,0,0.2,0c0,0,0.1,0,0.1,0C73.3,69.4,72.2,71.3,70.9,72.7z M72.3,66.9c-0.9,0.1-1.8,0.5-2.7,0.9c-0.1-0.4-0.2-0.7-0.4-1 c-0.1-0.3-0.2-0.5-0.4-0.7l-0.3-0.5L68.2,65l0,0l-0.5,0.4l-0.6,0.4c-0.4,0.3-0.8,0.8-1.2,1.3c-0.4-2.3-0.1-5.4,0.9-7 c0.1,0.1,0.3,0.3,0.4,0.4c0.2,0.2,0.4,0.4,0.5,0.6c0.2,0.3,0.4,0.6,0.6,0.9c0.4,0.7,0.7,1.5,1,2.3c0.8-1.1,1.9-2.2,3-2.9 c0.2-0.1,0.4-0.3,0.6-0.4c0.2-0.1,0.4-0.2,0.6-0.3c0.1,0,0.1-0.1,0.2-0.1C74.1,62.3,73.4,64.9,72.3,66.9z M68.5,60.1 c0.3-1.7,1-3.5,1.9-4.3c0.8,0.9,1.4,2.6,1.7,4.3c-0.9,0.5-1.7,1.2-2.4,1.9C69.4,61.3,69,60.7,68.5,60.1z M68.9,16l1.1-3.4l1.1,3.4 h3.5l-2.9,2.1l1.1,3.4L70,19.3l-2.9,2.1l1.1-3.4L65.3,16H68.9z M68.9,30.1l1.1-3.4l1.1,3.4h3.5l-2.9,2.1l1.1,3.4L70,33.4l-2.9,2.1 l1.1-3.4l-2.9-2.1H68.9z M65.6,70.4c0-0.1,0.1-0.2,0.1-0.4c0.1-0.2,0.2-0.4,0.3-0.6c0,0,0-0.1,0-0.1c0.1-0.2,0.2-0.5,0.3-0.7 c0,0,0,0,0-0.1c0.4-0.8,0.9-1.4,1.5-1.8c0.3,0.4,0.5,1,0.7,1.6c0.1,0.2,0.1,0.4,0.1,0.6c0,0.2,0.1,0.4,0.1,0.7c0,0,0,0,0,0 c0,0.2,0,0.4,0.1,0.6c0,0.2,0,0.4,0,0.6c0,0.5,0,0.9,0,1.4c-0.2,0-0.4,0-0.6,0c-0.4,0-0.8,0-1.2,0.1c-0.2,0-0.4,0-0.6,0.1 c-0.1,0-0.3,0-0.4,0.1c-0.1,0-0.1,0-0.2,0c-0.2,0-0.4,0.1-0.5,0.1c-0.1,0-0.2,0-0.3,0.1c0.1-0.5,0.2-1,0.3-1.5 C65.3,71,65.4,70.7,65.6,70.4z M64.7,67.8c0.1,0.2,0.2,0.4,0.3,0.7c0,0,0,0.1-0.1,0.1c-0.7,1.4-1.2,3.1-1.4,4.6 c-0.6,0.2-1.1,0.5-1.6,0.7c-0.4-2.3,0.4-6.1,1.8-7.6C64.2,66.7,64.5,67.2,64.7,67.8z M56.4,16l1.1-3.4l1.1,3.4h3.5l-2.9,2.1 l1.1,3.4l-2.9-2.1l-2.9,2.1l1.1-3.4L52.9,16H56.4z M44,16l1.1-3.4l1.1,3.4h3.5l-2.9,2.1l1.1,3.4l-2.9-2.1l-2.9,2.1l1.1-3.4 L40.5,16H44z M31.6,16l1.1-3.4l1.1,3.4h3.5l-2.9,2.1l1.1,3.4l-2.9-2.1l-2.9,2.1l1.1-3.4L28,16H31.6z M27.9,24.4h34.3v35.6 c0,9.5-7.7,17.2-17.2,17.2v0c0,0,0,0,0,0c-9.5,0-17.2-7.7-17.2-17.2V24.4z M26.6,67.4c1.2,1.5,1.8,4.6,1.6,6.8 c-0.4-0.2-0.7-0.4-1.1-0.5c-0.1-1.6-0.7-3.5-1.6-5.2c0,0,0,0,0,0c0.3-0.5,0.6-1,0.9-1.4C26.5,67.2,26.5,67.3,26.6,67.4z M25.5,66.2c-0.3,0.3-0.5,0.6-0.7,1c-0.3-0.5-0.7-0.9-1.1-1.3c-0.2-0.2-0.3-0.3-0.5-0.4c-0.1-0.1-0.2-0.2-0.3-0.2l-0.3-0.2 l-0.8-0.5l-0.7,1.2c-0.2,0.4-0.4,0.8-0.5,1.3c0,0-0.1-0.1-0.1-0.1c-0.7-1.4-1.1-2.8-1.1-3.9c0.8,0.1,1.7,0.5,2.6,1 c0.2-0.6,0.4-1.2,0.7-1.8c0.2-0.3,0.3-0.6,0.5-0.9c0.2-0.3,0.3-0.5,0.5-0.7c0.2-0.3,0.4-0.5,0.6-0.7C25.2,61.3,25.7,64,25.5,66.2z M19.1,16l1.1-3.4l1.1,3.4h3.5L22,18.1l1.1,3.4l-2.9-2.1l-2.9,2.1l1.1-3.4L15.6,16H19.1z M19.1,30.1l1.1-3.4l1.1,3.4h3.5L22,32.2 l1.1,3.4l-2.9-2.1l-2.9,2.1l1.1-3.4l-2.9-2.1H19.1z"></path> </g> <g> <g> <path class="st0" d="M356.7,67.4h-19.8V10.3h19.8V67.4z M338,66.3h17.6v-55H338V66.3z"></path> </g> <g> <path class="st0" d="M337.8,29.9l-0.9-0.4V10.3h19.2l0.4,0.9L337.8,29.9z M338,11.3v16.8l16.8-16.8H338z"></path> </g> <g> <path class="st0" d="M356.7,30h-19.2l-0.4-0.9l18.7-18.7l0.9,0.4V30z M338.8,29h16.8V12.1L338.8,29z"></path> </g> <g> <path class="st0" d="M367.7,30H361v-0.5c0-5.1,2-10,5.6-13.6l0,0c3.5-3.5,8.2-5.5,13.1-5.6l0,1.1c-7.3,0.2-13,6.2-13,13.5 c0,1.5,0.3,3.1,0.8,4.5L367.7,30z M362.1,29h4.2c-0.4-1.3-0.6-2.7-0.6-4.1c0-4,1.6-7.6,4.1-10.2c-0.9,0.6-1.7,1.3-2.4,2l0,0 C364.1,20,362.2,24.3,362.1,29z"></path> </g> <g> <path class="st0" d="M380.7,24.8h-1.1V10.3h1.1l0,0.5L380.7,24.8C380.7,24.8,380.7,24.8,380.7,24.8L380.7,24.8z"></path> </g> <g> <path class="st0" d="M390.1,24.8H389c0-2.3-1.9-4.1-4.1-4.1c-2.2,0-4.1,1.8-4.1,4l0,0c0,0,0,0,0,0v0h-1.1V10.3h10.4V24.8z M380.7,11.4v10.3c1-1.2,2.5-2.1,4.1-2.1c1.7,0,3.2,0.8,4.1,2V11.4H380.7z"></path> </g> <g> <path class="st0" d="M390.1,67.4h-10.4V52.8h1.1v0c0,0,0,0,0,0l0,0c0.1,2.2,1.9,4,4.1,4c2.3,0,4.1-1.9,4.1-4.1h1.1V67.4z M380.7,66.3h8.3V56c-1,1.2-2.5,2-4.1,2c-1.7,0-3.2-0.8-4.1-2.1V66.3z"></path> </g> <g> <path class="st0" d="M442.2,67.4h-10.4V52.8h1.1c0,2.3,1.9,4.1,4.1,4.1s4.1-1.9,4.1-4.1h1.1V67.4z M432.8,66.3h8.3V56 c-1,1.2-2.5,2-4.1,2s-3.2-0.8-4.1-2V66.3z"></path> </g> <g> <path class="st0" d="M380.7,48.7H361V29h6.4l0.1,0.4c1.9,5.4,7,9,12.7,9h0.5V48.7z M362.1,47.6h17.6v-8.3 c-5.8-0.2-11-3.9-13.1-9.3h-4.6V47.6z"></path> </g> <g> <path class="st0" d="M380.7,67.4h-0.5c-10.6,0-19.2-8.6-19.2-19.2v-0.5h19.8V67.4z M362.1,48.7c0.3,9.6,8,17.3,17.6,17.6V48.7 H362.1z"></path> </g> <g> <path class="st0" d="M408.8,30H389V10.3h0.5c5.1,0,10,2,13.6,5.6c3.6,3.6,5.6,8.5,5.6,13.6V30z M390.1,29h17.6 c-0.1-4.6-2-9-5.3-12.3c-3.3-3.3-7.6-5.2-12.3-5.3V29z"></path> </g> <g> <path class="st0" d="M389.5,67.4H389V29h12.9l0-0.4l0.3,0.4h6.5v19.2c0,3.3-0.9,6.6-2.5,9.5l-0.3,0.6h0l-0.1,0.2l-0.1,0.2l0,0 l-0.3,0.5c-0.6,0.9-1.3,1.8-2.1,2.6l-0.2,0.2H394l1,4.8l-0.5,0.1C392.9,67.2,391.2,67.4,389.5,67.4z M390.1,30v36.3 c1.2,0,2.5-0.2,3.7-0.5l-1.1-5.1h10c0.4-0.5,0.8-0.9,1.2-1.4h-13.4l1.6-3.6h13.5l0.2,0.5c1.2-2.5,1.9-5.2,1.9-8v-4.3 c0,1.5-0.6,3.1-2.3,4.7l-0.2,0.1h-12.8l-0.2-0.1c-3-2.7-2.3-5.6-1.8-7.9c0.3-1.3,0.5-2.4,0.2-3.2l-0.5-1l1.1,0.2 c1,0.2,1.4,1,1.8,1.6c0.2,0.3,0.3,0.5,0.5,0.7c0-2.4,1-4,1.9-5.3c0.6-0.9,1.1-1.7,1.3-2.7L397,30H390.1z M392.2,58.2h13.4 l-0.6-1.4h-12.1L392.2,58.2z M392.9,47.6h11.9c2.5-2.5,1.8-4.8,1.1-6.9c-0.2-0.6-0.3-1.1-0.4-1.6c-0.1,0.3-0.3,0.6-0.4,0.9 c-0.3,0.7-0.6,1.4-1,1.9l-0.5,0.6l-0.3-0.7c-0.8-1.7-0.5-3.4-0.2-5c0.3-1.7,0.7-3.3-0.2-5.1c-0.3,1.1-0.8,1.9-1.4,2.8 c-0.9,1.4-1.9,3-2.1,5.6l-0.1,1.9l-0.9-1.7c-0.8-1.5-0.7-3-0.6-4.4c0.1-1.2,0.2-2.3-0.3-3.5c-0.3,0.6-0.7,1.2-1.1,1.8 c-1,1.5-2,3-1.7,5.8l0.1,0.9l-0.8-0.4c-0.9-0.4-1.4-1.1-1.8-1.8c-0.1-0.1-0.2-0.3-0.3-0.4c0,0.8-0.2,1.6-0.4,2.4 C391.1,43.1,390.6,45.4,392.9,47.6z M407.4,37l-0.7,1.1c-0.3,0.5,0,1.3,0.3,2.3c0.3,1,0.7,2.1,0.7,3.3V30h-4.6 c1.9,2.6,1.5,4.9,1.1,6.9c-0.2,1.2-0.5,2.3-0.3,3.3c0.1-0.2,0.2-0.4,0.3-0.7c0.4-1,0.8-2.1,1.9-2.3L407.4,37z M397.3,30l0.5,0.7 c1.3,1.9,1.2,3.6,1.1,5.2c0,0.5-0.1,1-0.1,1.5c0.4-1.4,1.1-2.5,1.7-3.5c0.8-1.3,1.4-2.3,1.4-3.8l0-0.1H397.3z M406.3,54.3h-14.9 l1.6-3.6h11.6L406.3,54.3z M393.1,53.2h11.6l-0.7-1.4h-10.3L393.1,53.2z"></path> </g> <g> <path class="st0" d="M405.3,48.7h-12.8l-0.2-0.1c-3-2.7-2.3-5.6-1.8-7.9c0.3-1.3,0.5-2.4,0.2-3.2l-0.5-1l1.1,0.2 c1,0.2,1.4,1,1.8,1.6c0.2,0.3,0.3,0.5,0.5,0.7c0-2.4,1-4,1.9-5.3c0.6-0.9,1.1-1.7,1.3-2.7l0.2-1.3l0.8,1.1 c1.3,1.9,1.2,3.6,1.1,5.2c0,0.5-0.1,1-0.1,1.5c0.4-1.4,1.1-2.5,1.7-3.5c0.8-1.3,1.4-2.3,1.4-3.8l-0.1-1.6l1,1.3 c2.1,2.7,1.7,5.1,1.2,7.2c-0.2,1.2-0.5,2.3-0.3,3.3c0.1-0.2,0.2-0.4,0.3-0.7c0.4-1,0.8-2.1,1.9-2.3l1.3-0.3l-0.7,1.1 c-0.3,0.5,0,1.3,0.3,2.3c0.7,2.2,1.6,5.2-1.6,8.2L405.3,48.7z M392.9,47.6h11.9c2.5-2.5,1.8-4.8,1.1-6.9 c-0.2-0.6-0.3-1.1-0.4-1.6c-0.1,0.3-0.3,0.6-0.4,0.9c-0.3,0.7-0.6,1.4-1,1.9l-0.5,0.6l-0.3-0.7c-0.8-1.7-0.5-3.4-0.2-5 c0.3-1.7,0.7-3.3-0.2-5.1c-0.3,1.1-0.8,1.9-1.4,2.8c-0.9,1.4-1.9,3-2.1,5.6l-0.1,1.9l-0.9-1.7c-0.8-1.5-0.7-3-0.6-4.4 c0.1-1.2,0.2-2.3-0.3-3.5c-0.3,0.6-0.7,1.2-1.1,1.8c-1,1.5-2,3-1.7,5.8l0.1,0.9l-0.8-0.4c-0.9-0.4-1.4-1.1-1.8-1.8 c-0.1-0.1-0.2-0.3-0.3-0.4c0,0.8-0.2,1.6-0.4,2.4C391.1,43.1,390.6,45.4,392.9,47.6z"></path> </g> <g> <path class="st0" d="M419.8,30h-6.8V10.3h19.2v1.1c-7.4,0-13.5,6-13.5,13.5c0,1.5,0.3,3,0.8,4.5L419.8,30z M414.1,29h4.2 c-0.4-1.3-0.6-2.7-0.6-4.1c0-6.1,3.8-11.3,9.1-13.5h-12.7V29z"></path> </g> <g> <path class="st0" d="M442.2,25.4h-10.4V10.3h10.4V25.4z M432.8,24.3h8.3V11.3h-8.3V24.3z"></path> </g> <g> <path class="st0" d="M442.2,39.4h-10.4V29h10.4V39.4z M432.8,38.3h8.3V30h-8.3V38.3z"></path> </g> <g> <path class="st0" d="M432.3,39.4h-19.2V29h6.4l0.1,0.4c1.9,5.4,7,9,12.7,9V39.4z M414.1,38.3h12.7c-3.7-1.5-6.6-4.4-8.1-8.3h-4.6 V38.3z"></path> </g> <g> <path class="st0" d="M432.8,67.4h-0.5c-10.6,0-19.2-8.6-19.2-19.2v-0.5h19.8V67.4z M414.1,48.7c0.3,9.6,8,17.3,17.6,17.6V48.7 H414.1z"></path> </g> <g> <path class="st0" d="M459.5,25.4h-18.4V10.3h18.4V25.4z M442.2,24.3h16.2V11.3h-16.2V24.3z"></path> </g> <g> <path class="st0" d="M460.8,48.7h-19.8V29h0.5c10.6,0,19.2,8.6,19.2,19.2V48.7z M442.2,47.6h17.6c-0.3-9.6-8-17.3-17.6-17.6V47.6 z"></path> </g> <g> <path class="st0" d="M441.6,67.4h-0.5l0-19.8h19.8v0.5C460.8,58.8,452.2,67.4,441.6,67.4z M442.2,48.7v17.6 c9.6-0.3,17.3-8,17.6-17.6H442.2z"></path> </g> <g> <g> <path class="st0" d="M405.3,48.7h-12.8l-0.2-0.1c-3-2.7-2.3-5.6-1.8-7.9c0.3-1.3,0.5-2.4,0.2-3.2l-0.5-1l1.1,0.2 c1,0.2,1.4,1,1.8,1.6c0.2,0.3,0.3,0.5,0.5,0.7c0-2.4,1-4,1.9-5.3c0.6-0.9,1.1-1.7,1.3-2.7l0.2-1.3l0.8,1.1 c1.3,1.9,1.2,3.6,1.1,5.2c0,0.5-0.1,1-0.1,1.5c0.4-1.4,1.1-2.5,1.7-3.5c0.8-1.3,1.4-2.3,1.4-3.8l-0.1-1.6l1,1.3 c2.1,2.7,1.7,5.1,1.2,7.2c-0.2,1.2-0.5,2.3-0.3,3.3c0.1-0.2,0.2-0.4,0.3-0.7c0.4-1,0.8-2.1,1.9-2.3l1.3-0.3l-0.7,1.1 c-0.3,0.5,0,1.3,0.3,2.3c0.7,2.2,1.6,5.2-1.6,8.2L405.3,48.7z M392.9,47.6h11.9c2.5-2.5,1.8-4.8,1.1-6.9 c-0.2-0.6-0.3-1.1-0.4-1.6c-0.1,0.3-0.3,0.6-0.4,0.9c-0.3,0.7-0.6,1.4-1,1.9l-0.5,0.6l-0.3-0.7c-0.8-1.7-0.5-3.4-0.2-5 c0.3-1.7,0.7-3.3-0.2-5.1c-0.3,1.1-0.8,1.9-1.4,2.8c-0.9,1.4-1.9,3-2.1,5.6l-0.1,1.9l-0.9-1.7c-0.8-1.5-0.7-3-0.6-4.4 c0.1-1.2,0.2-2.3-0.3-3.5c-0.3,0.6-0.7,1.2-1.1,1.8c-1,1.5-2,3-1.7,5.8l0.1,0.9l-0.8-0.4c-0.9-0.4-1.4-1.1-1.8-1.8 c-0.1-0.1-0.2-0.3-0.3-0.4c0,0.8-0.2,1.6-0.4,2.4C391.1,43.1,390.6,45.4,392.9,47.6z"></path> </g> </g> <g> <path class="st0" d="M406.3,54.3h-14.9l1.6-3.6h11.6L406.3,54.3z M393.1,53.2h11.6l-0.7-1.4h-10.3L393.1,53.2z"></path> </g> <g> <path class="st0" d="M405.2,59.3h-14.7l1.6-3.6h13.5l0.8,1.7l-0.1,0.2c-0.3,0.5-0.6,0.9-0.9,1.4L405.2,59.3z M392.2,58.2h12.5 c0.2-0.3,0.4-0.6,0.5-0.9l-0.3-0.6h-12.1L392.2,58.2z"></path> </g> <g> <path class="st0" d="M394,66.9l-1.3-6.2h11.5l-0.9,0.9c-2.4,2.5-5.4,4.2-8.8,5.1L394,66.9z M394,61.8l0.8,3.8 c2.5-0.8,4.8-2,6.8-3.8H394z"></path> </g> <g> <g> <path class="st0" d="M356.7,62.7h-0.5c-8,0-14.5-6.5-14.5-14.5s6.5-14.5,14.5-14.5h0.5V62.7z M355.6,34.7 c-7.2,0.3-12.9,6.2-12.9,13.5c0,7.2,5.8,13.2,12.9,13.5V34.7z"></path> </g> </g> <g> <g> <path class="st0" d="M380.7,39.4h-0.5c-6.2,0-11.7-3.9-13.7-9.7c-0.5-1.6-0.8-3.2-0.8-4.8c0-7.9,6.1-14.3,14-14.5v0h0.2 c0.1,0,0.2,0,0.3,0h0.5V39.4z M379.7,11.4c-7.3,0.3-12.9,6.2-12.9,13.5c0,1.5,0.3,3.1,0.8,4.5c1.8,5.2,6.7,8.8,12.2,9 L379.7,11.4z"></path> </g> <g> <path class="st0" d="M380.7,24.8h-1.1V10.3h1.1l0,0.5L380.7,24.8C380.7,24.8,380.7,24.8,380.7,24.8L380.7,24.8z"></path> </g> </g> <g> <g> <path class="st0" d="M432.8,39.4h-0.5c-6.2,0-11.7-3.9-13.7-9.7c-0.5-1.6-0.8-3.2-0.8-4.8c0-8,6.5-14.5,14.5-14.5h0.5V39.4z M431.7,11.4c-7.2,0.3-12.9,6.2-12.9,13.5c0,1.5,0.3,3,0.8,4.5c1.8,5.2,6.7,8.8,12.2,9V11.4z"></path> </g> </g> <g> <path class="st0" d="M436.9,38.8"></path> </g> <g> <path class="st0" d="M441.6,67.4h-0.5V43.5c0-2.3-1.9-4.1-4.1-4.1v-1.1h4.7c8,0,14.5,6.5,14.5,14.5 C456.2,60.9,449.6,67.4,441.6,67.4z M440.1,39.4c1.2,1,2,2.5,2,4.1v22.8c7.2-0.3,12.9-6.2,12.9-13.5c0-7.4-6-13.5-13.5-13.5 H440.1z"></path> </g> </g> <g> <path class="st0" d="M345.1,89.4h-5.7l-0.9,2.7h-3.9l5.6-15.4h4.3l5.6,15.4h-4L345.1,89.4z M344.1,86.5l-1.9-5.6l-1.9,5.6H344.1z"></path> <path class="st0" d="M362.6,81.1c0.9,0.9,1.3,2.2,1.3,3.8v7.1h-3.7v-6.6c0-0.8-0.2-1.5-0.6-1.9c-0.4-0.5-1-0.7-1.7-0.7 c-0.7,0-1.3,0.2-1.7,0.7c-0.4,0.5-0.6,1.1-0.6,1.9v6.6h-3.7V79.9h3.7v1.6c0.4-0.5,0.9-1,1.5-1.3c0.6-0.3,1.4-0.5,2.2-0.5 C360.6,79.8,361.7,80.2,362.6,81.1z M356.9,75.6c0.3,0,0.6,0,0.8,0.1c0.2,0.1,0.5,0.2,0.9,0.4c0.3,0.1,0.5,0.3,0.6,0.3 c0.2,0.1,0.3,0.1,0.5,0.1c0.5,0,0.9-0.3,0.9-1h1.9c-0.4,2.2-1.4,3.2-3,3.2c-0.3,0-0.6,0-0.8-0.1c-0.2-0.1-0.5-0.2-0.9-0.4 c-0.3-0.1-0.5-0.3-0.6-0.3c-0.2-0.1-0.3-0.1-0.5-0.1c-0.5,0-0.9,0.3-1,1h-1.9C354.3,76.7,355.3,75.6,356.9,75.6z"></path> <path class="st0" d="M369.1,91.5c-1-0.5-1.7-1.2-2.3-2.2c-0.5-0.9-0.8-2.1-0.8-3.3c0-1.3,0.3-2.4,0.8-3.3c0.6-1,1.3-1.7,2.3-2.2 c1-0.5,2-0.8,3.2-0.8c1.2,0,2.3,0.3,3.2,0.8c1,0.5,1.7,1.2,2.3,2.2c0.6,1,0.8,2.1,0.8,3.3s-0.3,2.4-0.8,3.3 c-0.6,1-1.3,1.7-2.3,2.2c-1,0.5-2.1,0.8-3.2,0.8C371.1,92.3,370.1,92,369.1,91.5z M374.2,88.2c0.5-0.5,0.8-1.3,0.8-2.3 c0-1-0.2-1.7-0.7-2.3c-0.5-0.5-1.1-0.8-1.8-0.8c-0.7,0-1.3,0.3-1.8,0.8c-0.5,0.5-0.7,1.3-0.7,2.3c0,1,0.2,1.7,0.7,2.3 c0.5,0.5,1.1,0.8,1.8,0.8C373,89,373.7,88.8,374.2,88.2z"></path> <path class="st0" d="M383,91.7c-0.8-0.4-1.5-0.9-2-1.5c-0.5-0.6-0.8-1.3-0.8-2.1h3.7c0,0.4,0.2,0.8,0.6,1c0.3,0.3,0.8,0.4,1.3,0.4 c0.5,0,0.8-0.1,1.1-0.3c0.3-0.2,0.4-0.4,0.4-0.7c0-0.4-0.2-0.6-0.5-0.8c-0.4-0.2-1-0.4-1.8-0.6c-0.9-0.2-1.6-0.4-2.2-0.6 c-0.6-0.2-1.1-0.6-1.5-1.1c-0.4-0.5-0.6-1.1-0.6-2c0-0.7,0.2-1.3,0.6-1.9c0.4-0.6,1-1,1.7-1.4c0.8-0.3,1.6-0.5,2.7-0.5 c1.5,0,2.7,0.4,3.6,1.1c0.9,0.8,1.4,1.8,1.5,3h-3.5c-0.1-0.4-0.2-0.8-0.6-1c-0.3-0.2-0.7-0.4-1.2-0.4c-0.4,0-0.8,0.1-1,0.3 c-0.2,0.2-0.4,0.4-0.4,0.7c0,0.3,0.2,0.6,0.6,0.8c0.4,0.2,1,0.3,1.7,0.5c0.9,0.2,1.6,0.5,2.2,0.7c0.6,0.2,1.1,0.6,1.5,1.1 c0.4,0.5,0.7,1.2,0.7,2c0,0.7-0.2,1.4-0.6,1.9c-0.4,0.6-1,1-1.7,1.3c-0.8,0.3-1.6,0.5-2.6,0.5C384.8,92.3,383.8,92.1,383,91.7z"></path> <path class="st0" d="M402.5,76.8v9.6c0,1.4,0.3,2.4,1,3c0.7,0.7,1.6,1,2.8,1c1.2,0,2.1-0.3,2.7-1c0.7-0.7,1-1.7,1-3v-9.6h2v9.6 c0,1.3-0.3,2.3-0.8,3.2c-0.5,0.9-1.2,1.5-2.1,1.9c-0.9,0.4-1.8,0.6-2.9,0.6c-1.1,0-2.1-0.2-2.9-0.6c-0.9-0.4-1.6-1.1-2.1-1.9 c-0.5-0.9-0.8-1.9-0.8-3.2v-9.6H402.5z"></path> <path class="st0" d="M415.5,82.8c0.5-0.9,1.2-1.6,2-2.2c0.9-0.5,1.8-0.8,2.9-0.8c0.9,0,1.8,0.2,2.6,0.6c0.8,0.4,1.4,1,1.8,1.7 v-6.3h2v16.2h-2v-2.3c-0.4,0.7-1,1.3-1.8,1.8c-0.8,0.5-1.7,0.7-2.7,0.7c-1.1,0-2-0.3-2.9-0.8c-0.9-0.5-1.5-1.3-2-2.2 c-0.5-0.9-0.7-2-0.7-3.2C414.8,84.8,415,83.8,415.5,82.8z M424.4,83.7c-0.4-0.7-0.9-1.2-1.5-1.5c-0.6-0.4-1.3-0.5-2-0.5 s-1.4,0.2-2,0.5c-0.6,0.3-1.1,0.9-1.5,1.5c-0.4,0.7-0.5,1.5-0.5,2.4c0,0.9,0.2,1.7,0.5,2.4c0.4,0.7,0.9,1.2,1.5,1.6 c0.6,0.4,1.3,0.5,2,0.5s1.4-0.2,2-0.5c0.6-0.4,1.1-0.9,1.5-1.6c0.4-0.7,0.5-1.5,0.5-2.4C424.9,85.2,424.7,84.4,424.4,83.7z"></path> <path class="st0" d="M441.4,86.8h-9.6c0.1,1.2,0.5,2.1,1.2,2.8c0.7,0.7,1.6,1,2.7,1c0.9,0,1.6-0.2,2.2-0.6c0.6-0.4,1-0.9,1.2-1.6 h2.1c-0.3,1.2-1,2.1-1.9,2.8c-1,0.7-2.2,1.1-3.6,1.1c-1.1,0-2.2-0.3-3.1-0.8c-0.9-0.5-1.6-1.2-2.1-2.2c-0.5-0.9-0.8-2-0.8-3.3 c0-1.2,0.2-2.3,0.7-3.3c0.5-0.9,1.2-1.7,2.1-2.2c0.9-0.5,1.9-0.8,3.1-0.8c1.1,0,2.1,0.2,3,0.7c0.9,0.5,1.5,1.2,2,2 c0.5,0.9,0.7,1.8,0.7,2.9C441.4,86,441.4,86.4,441.4,86.8z M438.9,83.3c-0.3-0.5-0.8-1-1.4-1.2c-0.6-0.3-1.2-0.4-1.9-0.4 c-1,0-1.9,0.3-2.6,1c-0.7,0.6-1.1,1.5-1.2,2.7h7.6C439.4,84.5,439.2,83.8,438.9,83.3z"></path> <path class="st0" d="M444.7,80.4c0.7-1.2,1.6-2.1,2.7-2.8c1.2-0.7,2.4-1,3.9-1c1.7,0,3.1,0.4,4.4,1.2c1.2,0.8,2.1,1.9,2.7,3.4H456 c-0.4-0.9-1-1.6-1.8-2.1c-0.8-0.5-1.7-0.7-2.9-0.7c-1.1,0-2,0.2-2.9,0.7c-0.8,0.5-1.5,1.2-2,2.1c-0.5,0.9-0.7,2-0.7,3.2 c0,1.2,0.2,2.3,0.7,3.2c0.5,0.9,1.1,1.6,2,2.1c0.8,0.5,1.8,0.7,2.9,0.7c1.1,0,2.1-0.2,2.9-0.7c0.8-0.5,1.4-1.2,1.8-2.1h2.4 c-0.6,1.5-1.5,2.6-2.7,3.4c-1.2,0.8-2.7,1.2-4.4,1.2c-1.4,0-2.7-0.3-3.9-1c-1.2-0.7-2.1-1.6-2.7-2.8c-0.7-1.2-1-2.5-1-4 C443.7,83,444,81.6,444.7,80.4z"></path> </g> <g> <rect x="296.4" y="10.2" class="st0" width="1.1" height="81.2"></rect> </g> </g> </svg> 